<svg id="Layer_1" data-name="Layer 1" xmlns="http://www.w3.org/2000/svg" xmlns:xlink="http://www.w3.org/1999/xlink" width="735" height="333" viewBox="0 0 735 333"><defs><style>.cls-1,.cls-4,.cls-8{fill:none;}.cls-2{fill:#fff;}.cls-3{clip-path:url(#clip-path);}.cls-4{stroke:#dfdfdf;stroke-width:2px;}.cls-4,.cls-8{stroke-linecap:round;stroke-linejoin:round;}.cls-5{fill:#ccc;}.cls-6{isolation:isolate;}.cls-7{fill:#757575;}.cls-8{stroke:#616161;stroke-dasharray:1 3;}.cls-9{fill:#eaedef;}.cls-10{fill:#ea4335;}.cls-11{fill:#4285f4;}.cls-12{fill:#34a853;}.cls-13{fill:#fbbc05;}.cls-14{clip-path:url(#clip-path-2);}.cls-15{fill:#212121;}.cls-16{fill:#aecbfa;}.cls-17{fill:#669df6;}.cls-18{fill:#616161;}.cls-19{clip-path:url(#clip-path-3);}.cls-20{clip-path:url(#clip-path-4);}.cls-21{clip-path:url(#clip-path-5);}</style><clipPath id="clip-path"><rect class="cls-1" x="30" y="235.5" width="323.3" height="77.5"/></clipPath><clipPath id="clip-path-2"><rect class="cls-1" x="541.2" y="119" width="124" height="56"/></clipPath><clipPath id="clip-path-3"><rect class="cls-1" x="194.1" y="119.5" width="124" height="56"/></clipPath><clipPath id="clip-path-4"><rect class="cls-1" x="50.1" y="119.5" width="124" height="56"/></clipPath><clipPath id="clip-path-5"><rect class="cls-1" x="338" y="119.5" width="124" height="56"/></clipPath></defs><title>Diagram 2</title><g id="Canvas_2" data-name="Canvas 2"><rect class="cls-2" width="735" height="333"/><g id="Group_260" data-name="Group 260"><g id="Group_254" data-name="Group 254"><g id="Graphic_253" data-name="Graphic 253"><rect class="cls-2" x="30" y="235.5" width="323.3" height="77.5"/><g class="cls-3"><rect class="cls-4" x="30" y="235.5" width="323.3" height="77.5"/></g></g><g id="Graphic_196" data-name="Graphic 196"><circle class="cls-5" cx="49.9" cy="256" r="10"/><g class="cls-6"><path d="M50.89,259.48H49.74v-7.41l-1.75,0v-.84l2.9-.31Z"/></g></g><g id="Graphic_195" data-name="Graphic 195"><g class="cls-6"><path class="cls-7" d="M69.71,251,72,256.73h0L74.27,251H75.5v7.1h-1v-2.81l.1-2.89h0l-2.3,5.7h-.64l-2.3-5.69h0l.09,2.87v2.81h-1V251Z"/><path class="cls-7" d="M78.12,251.43h-1v-1h1Zm0,6.63h-1v-5.28h1Z"/><path class="cls-7" d="M79.39,255.52a3.51,3.51,0,0,1,.56-2.06,1.86,1.86,0,0,1,3.06,0l.11-.69h.77v5.31a2,2,0,0,1-.59,1.56,2.41,2.41,0,0,1-1.71.55,3.64,3.64,0,0,1-.82-.11,3.41,3.41,0,0,1-.78-.28l.25-.75a2.36,2.36,0,0,0,.62.24,3.08,3.08,0,0,0,.72.09,1.44,1.44,0,0,0,1-.32,1.36,1.36,0,0,0,.32-1v-.59a1.74,1.74,0,0,1-.62.5,2,2,0,0,1-.83.17,1.84,1.84,0,0,1-1.53-.71,2.86,2.86,0,0,1-.56-1.84Zm1,.1a2.23,2.23,0,0,0,.34,1.28,1.19,1.19,0,0,0,1,.49,1.25,1.25,0,0,0,.72-.2,1.5,1.5,0,0,0,.49-.56V254.2a1.51,1.51,0,0,0-.49-.54,1.24,1.24,0,0,0-.71-.2,1.12,1.12,0,0,0-1,.58,2.84,2.84,0,0,0-.35,1.48Z"/><path class="cls-7" d="M87.79,253.63l-.5,0a1.1,1.1,0,0,0-.64.18,1.15,1.15,0,0,0-.4.51v3.77h-1v-5.28h.86l.09.77a1.92,1.92,0,0,1,.55-.64,1.31,1.31,0,0,1,.76-.23l.21,0,.16,0Z"/><path class="cls-7" d="M92,258.06c0-.15-.06-.3-.08-.42l0-.37a2.16,2.16,0,0,1-.7.64,1.81,1.81,0,0,1-.93.26,1.7,1.7,0,0,1-1.26-.43,1.56,1.56,0,0,1-.43-1.16,1.36,1.36,0,0,1,.62-1.18,2.8,2.8,0,0,1,1.66-.43h1v-.52a1,1,0,0,0-.28-.74,1.12,1.12,0,0,0-.8-.27,1.17,1.17,0,0,0-.76.24.7.7,0,0,0-.29.57h-.91v0a1.28,1.28,0,0,1,.54-1.06,2.52,2.52,0,0,1,2.93,0,1.62,1.62,0,0,1,.54,1.32V257a4.93,4.93,0,0,0,0,.55,2.89,2.89,0,0,0,.11.51Zm-1.6-.7a1.73,1.73,0,0,0,1-.27,1.21,1.21,0,0,0,.54-.62v-.85H90.77a1.46,1.46,0,0,0-.93.29.89.89,0,0,0-.35.69.73.73,0,0,0,.22.55A.92.92,0,0,0,90.36,257.36Z"/><path class="cls-7" d="M95.48,251.51v1.27h1v.71h-1v3.21a.72.72,0,0,0,.15.52.54.54,0,0,0,.41.16l.19,0,.17-.05.13.66a.9.9,0,0,1-.31.14,1.52,1.52,0,0,1-.42.06,1.23,1.23,0,0,1-.93-.36,1.48,1.48,0,0,1-.35-1.11v-3.21h-.84v-.71h.84v-1.27Z"/><path class="cls-7" d="M98.71,251.43h-1v-1h1Zm0,6.63h-1v-5.28h1Z"/><path class="cls-7" d="M100,255.37a2.88,2.88,0,0,1,.64-1.93,2.14,2.14,0,0,1,1.72-.76,2.18,2.18,0,0,1,1.74.76,2.93,2.93,0,0,1,.63,1.93v.11a2.94,2.94,0,0,1-.63,1.94,2.36,2.36,0,0,1-3.46,0,2.9,2.9,0,0,1-.64-1.93Zm1,.11a2.44,2.44,0,0,0,.35,1.38,1.28,1.28,0,0,0,2.1,0,2.52,2.52,0,0,0,.35-1.38v-.11a2.49,2.49,0,0,0-.36-1.38,1.17,1.17,0,0,0-1.05-.55,1.15,1.15,0,0,0-1,.55,2.48,2.48,0,0,0-.35,1.38Z"/><path class="cls-7" d="M106.73,252.78l.07.79a2,2,0,0,1,.66-.65,1.93,1.93,0,0,1,2.23.26,2.23,2.23,0,0,1,.47,1.55v3.33h-1v-3.31a1.43,1.43,0,0,0-.28-1,1.08,1.08,0,0,0-.84-.3,1.33,1.33,0,0,0-.74.21,1.47,1.47,0,0,0-.51.54v3.85h-1v-5.28Z"/><path class="cls-7" d="M117.29,258.06c0-.15-.06-.3-.08-.42a2.22,2.22,0,0,1,0-.37,2.16,2.16,0,0,1-.7.64,1.81,1.81,0,0,1-.93.26,1.7,1.7,0,0,1-1.26-.43,1.52,1.52,0,0,1-.43-1.16,1.35,1.35,0,0,1,.61-1.18,2.85,2.85,0,0,1,1.67-.43h1v-.52a1,1,0,0,0-.28-.74,1.12,1.12,0,0,0-.8-.27,1.17,1.17,0,0,0-.76.24.7.7,0,0,0-.29.57h-.92v0a1.29,1.29,0,0,1,.55-1.06,2.52,2.52,0,0,1,2.93,0,1.62,1.62,0,0,1,.54,1.32V257a4.93,4.93,0,0,0,0,.55,2.89,2.89,0,0,0,.11.51Zm-1.6-.7a1.69,1.69,0,0,0,.94-.27,1.24,1.24,0,0,0,.55-.62v-.85H116.1a1.42,1.42,0,0,0-.93.29.89.89,0,0,0-.35.69.73.73,0,0,0,.22.55A.91.91,0,0,0,115.69,257.36Z"/><path class="cls-7" d="M119.33,255.52a3.44,3.44,0,0,1,.56-2.06,1.78,1.78,0,0,1,1.53-.78,1.83,1.83,0,0,1,.89.21,1.74,1.74,0,0,1,.63.58l.12-.69h.77v5.31a2,2,0,0,1-.6,1.56,2.38,2.38,0,0,1-1.7.55,3.57,3.57,0,0,1-.82-.11,3.1,3.1,0,0,1-.78-.28l.24-.75a2.44,2.44,0,0,0,.63.24,3,3,0,0,0,.72.09,1.4,1.4,0,0,0,1-.32,1.32,1.32,0,0,0,.32-1v-.59a1.66,1.66,0,0,1-.62.5,2,2,0,0,1-.83.17,1.84,1.84,0,0,1-1.52-.71,2.81,2.81,0,0,1-.56-1.84Zm1,.1a2.16,2.16,0,0,0,.34,1.28,1.16,1.16,0,0,0,1,.49,1.28,1.28,0,0,0,.73-.2,1.39,1.39,0,0,0,.48-.56V254.2a1.4,1.4,0,0,0-.48-.54,1.29,1.29,0,0,0-.72-.2,1.13,1.13,0,0,0-1,.58,2.85,2.85,0,0,0-.34,1.48Z"/><path class="cls-7" d="M127.41,258.17a2.22,2.22,0,0,1-1.75-.74,2.72,2.72,0,0,1-.65-1.9v-.22a2.71,2.71,0,0,1,.67-1.88,2.08,2.08,0,0,1,1.59-.75,2,2,0,0,1,1.61.65,2.54,2.54,0,0,1,.55,1.72v.6H126v0a2.13,2.13,0,0,0,.38,1.25,1.23,1.23,0,0,0,1,.49,2.46,2.46,0,0,0,.86-.14,1.94,1.94,0,0,0,.64-.38l.37.62a2,2,0,0,1-.74.47A3.14,3.14,0,0,1,127.41,258.17Zm-.14-4.73a1.07,1.07,0,0,0-.83.41,2,2,0,0,0-.42,1v0h2.44v-.13a1.47,1.47,0,0,0-.3-.94A1.1,1.1,0,0,0,127.27,253.44Z"/><path class="cls-7" d="M131.37,252.78l.07.79a1.79,1.79,0,0,1,.66-.65,1.93,1.93,0,0,1,2.23.26,2.23,2.23,0,0,1,.47,1.55v3.33h-1v-3.31a1.43,1.43,0,0,0-.28-1,1.09,1.09,0,0,0-.84-.3,1.33,1.33,0,0,0-.74.21,1.47,1.47,0,0,0-.51.54v3.85h-1v-5.28Z"/><path class="cls-7" d="M137.46,251.51v1.27h1v.71h-1v3.21a.67.67,0,0,0,.16.52.52.52,0,0,0,.4.16l.19,0,.18-.05.12.66a.82.82,0,0,1-.31.14,1.52,1.52,0,0,1-.42.06,1.23,1.23,0,0,1-.93-.36,1.52,1.52,0,0,1-.35-1.11v-3.21h-.84v-.71h.84v-1.27Z"/><path class="cls-7" d="M145.49,257.28a1.84,1.84,0,0,1-.64.66,1.77,1.77,0,0,1-.9.23,1.72,1.72,0,0,1-1.35-.55,2.6,2.6,0,0,1-.48-1.72v-3.12h1v3.13a1.93,1.93,0,0,0,.25,1.16.91.91,0,0,0,.77.32,1.55,1.55,0,0,0,.85-.21,1.4,1.4,0,0,0,.51-.59v-3.81h1v5.28h-.87Z"/><path class="cls-7" d="M148.68,252.78l.07.79a1.79,1.79,0,0,1,.66-.65,1.71,1.71,0,0,1,.9-.24,1.75,1.75,0,0,1,1.33.5,2.23,2.23,0,0,1,.47,1.55v3.33h-1v-3.31a1.43,1.43,0,0,0-.28-1,1.09,1.09,0,0,0-.84-.3,1.33,1.33,0,0,0-.74.21,1.47,1.47,0,0,0-.51.54v3.85h-1v-5.28Z"/><path class="cls-7" d="M154.54,258.06h-1v-7.61h1Z"/><path class="cls-7" d="M155.8,255.37a2.93,2.93,0,0,1,.63-1.93,2.35,2.35,0,0,1,3.46,0,2.88,2.88,0,0,1,.64,1.93v.11a2.94,2.94,0,0,1-.63,1.94,2.16,2.16,0,0,1-1.73.75,2.12,2.12,0,0,1-1.73-.76,2.85,2.85,0,0,1-.64-1.93Zm1,.11a2.52,2.52,0,0,0,.35,1.38,1.18,1.18,0,0,0,1.06.55,1.15,1.15,0,0,0,1-.55,2.44,2.44,0,0,0,.36-1.38v-.11a2.49,2.49,0,0,0-.36-1.38,1.28,1.28,0,0,0-2.1,0,2.57,2.57,0,0,0-.35,1.38Z"/><path class="cls-7" d="M165,258.06c0-.15,0-.3-.07-.42a2.22,2.22,0,0,1,0-.37,2.26,2.26,0,0,1-.7.64,1.81,1.81,0,0,1-.93.26,1.7,1.7,0,0,1-1.26-.43,1.52,1.52,0,0,1-.43-1.16,1.35,1.35,0,0,1,.61-1.18,2.82,2.82,0,0,1,1.66-.43h1v-.52a1,1,0,0,0-.29-.74,1.11,1.11,0,0,0-.8-.27,1.13,1.13,0,0,0-.75.24.68.68,0,0,0-.29.57h-.92v0a1.28,1.28,0,0,1,.54-1.06,2.26,2.26,0,0,1,1.49-.48,2.18,2.18,0,0,1,1.44.46,1.6,1.6,0,0,1,.55,1.32V257a4.93,4.93,0,0,0,0,.55,2.88,2.88,0,0,0,.1.51Zm-1.59-.7a1.69,1.69,0,0,0,.94-.27,1.29,1.29,0,0,0,.55-.62v-.85h-1.08a1.42,1.42,0,0,0-.93.29.86.86,0,0,0-.35.69.69.69,0,0,0,.22.55A.89.89,0,0,0,163.36,257.36Z"/><path class="cls-7" d="M167,255.52a3.58,3.58,0,0,1,.55-2.06,1.75,1.75,0,0,1,1.53-.78,2,2,0,0,1,.82.17,1.73,1.73,0,0,1,.61.5v-2.9h1v7.61h-.78l-.12-.64a1.77,1.77,0,0,1-.63.56,2,2,0,0,1-.87.19,1.84,1.84,0,0,1-1.52-.7,3,3,0,0,1-.55-1.85Zm1,.1a2.29,2.29,0,0,0,.32,1.28,1.14,1.14,0,0,0,1,.49,1.25,1.25,0,0,0,.72-.2,1.36,1.36,0,0,0,.48-.55v-2.46a1.42,1.42,0,0,0-.48-.52,1.26,1.26,0,0,0-.71-.2,1.11,1.11,0,0,0-1,.58,2.92,2.92,0,0,0-.33,1.48Z"/><path class="cls-7" d="M176,256.66a.64.64,0,0,0-.24-.52,2.22,2.22,0,0,0-.92-.36,3.9,3.9,0,0,1-1.45-.57,1.15,1.15,0,0,1-.48-1,1.35,1.35,0,0,1,.55-1.09,2.11,2.11,0,0,1,1.42-.46,2.13,2.13,0,0,1,1.47.48,1.42,1.42,0,0,1,.52,1.15v0h-.92a.84.84,0,0,0-.29-.62,1,1,0,0,0-.77-.28,1.11,1.11,0,0,0-.76.23.68.68,0,0,0-.25.54.59.59,0,0,0,.22.49,2.22,2.22,0,0,0,.89.32,3.83,3.83,0,0,1,1.49.59,1.15,1.15,0,0,1,.49,1,1.37,1.37,0,0,1-.57,1.14,2.37,2.37,0,0,1-1.48.44,2.3,2.3,0,0,1-1.6-.52,1.47,1.47,0,0,1-.55-1.19v0h.92a.87.87,0,0,0,.38.74,1.48,1.48,0,0,0,.84.24,1.33,1.33,0,0,0,.8-.21A.65.65,0,0,0,176,256.66Z"/><path class="cls-7" d="M181.87,251.51v1.27h1v.71h-1v3.21a.67.67,0,0,0,.16.52.51.51,0,0,0,.4.16l.19,0,.18-.05.12.66a.82.82,0,0,1-.31.14,1.52,1.52,0,0,1-.42.06,1.23,1.23,0,0,1-.93-.36,1.52,1.52,0,0,1-.35-1.11v-3.21h-.84v-.71h.84v-1.27Z"/><path class="cls-7" d="M187.31,258.06c0-.15-.06-.3-.08-.42a2.22,2.22,0,0,1,0-.37,2.16,2.16,0,0,1-.7.64,1.81,1.81,0,0,1-.93.26,1.7,1.7,0,0,1-1.26-.43,1.52,1.52,0,0,1-.43-1.16,1.35,1.35,0,0,1,.61-1.18,2.84,2.84,0,0,1,1.66-.43h1v-.52a1,1,0,0,0-.28-.74,1.12,1.12,0,0,0-.8-.27,1.17,1.17,0,0,0-.76.24.7.7,0,0,0-.29.57h-.92v0a1.29,1.29,0,0,1,.55-1.06,2.21,2.21,0,0,1,1.48-.48,2.18,2.18,0,0,1,1.44.46,1.6,1.6,0,0,1,.55,1.32V257a4.93,4.93,0,0,0,0,.55,2.89,2.89,0,0,0,.11.51Zm-1.6-.7a1.69,1.69,0,0,0,.94-.27,1.24,1.24,0,0,0,.55-.62v-.85h-1.08a1.42,1.42,0,0,0-.93.29.89.89,0,0,0-.35.69.69.69,0,0,0,.22.55A.91.91,0,0,0,185.71,257.36Z"/><path class="cls-7" d="M194.07,255.62a2.91,2.91,0,0,1-.55,1.85,1.84,1.84,0,0,1-1.51.7,1.88,1.88,0,0,1-.91-.21,1.64,1.64,0,0,1-.64-.59l-.12.69h-.78v-7.61h1v3a1.6,1.6,0,0,1,.62-.54,1.91,1.91,0,0,1,.86-.19,1.75,1.75,0,0,1,1.52.78,3.51,3.51,0,0,1,.55,2.06Zm-1-.1a2.85,2.85,0,0,0-.34-1.48,1.1,1.1,0,0,0-1-.58,1.28,1.28,0,0,0-.75.22,1.5,1.5,0,0,0-.49.59v2.29a1.58,1.58,0,0,0,.49.61,1.29,1.29,0,0,0,.76.22,1.16,1.16,0,0,0,1-.49,2.23,2.23,0,0,0,.33-1.28Z"/><path class="cls-7" d="M196.28,258.06h-1v-7.61h1Z"/><path class="cls-7" d="M200,258.17a2.22,2.22,0,0,1-1.75-.74,2.72,2.72,0,0,1-.65-1.9v-.22a2.71,2.71,0,0,1,.67-1.88,2.08,2.08,0,0,1,1.59-.75,2,2,0,0,1,1.61.65,2.54,2.54,0,0,1,.55,1.72v.6h-3.43v0a2.13,2.13,0,0,0,.38,1.25,1.23,1.23,0,0,0,1,.49,2.5,2.5,0,0,0,.86-.14,1.94,1.94,0,0,0,.64-.38l.37.62a2.09,2.09,0,0,1-.74.47A3.14,3.14,0,0,1,200,258.17Zm-.14-4.73a1.05,1.05,0,0,0-.83.41,1.88,1.88,0,0,0-.42,1v0H201v-.13a1.47,1.47,0,0,0-.3-.94A1.11,1.11,0,0,0,199.81,253.44Z"/><path class="cls-7" d="M206.12,256.66a.64.64,0,0,0-.24-.52,2.22,2.22,0,0,0-.92-.36,3.77,3.77,0,0,1-1.44-.57,1.14,1.14,0,0,1-.49-1,1.35,1.35,0,0,1,.55-1.09,2.11,2.11,0,0,1,1.42-.46,2.13,2.13,0,0,1,1.47.48,1.39,1.39,0,0,1,.52,1.15v0h-.92a.81.81,0,0,0-.29-.62,1,1,0,0,0-.77-.28,1.11,1.11,0,0,0-.76.23.68.68,0,0,0-.25.54.59.59,0,0,0,.22.49,2.28,2.28,0,0,0,.89.32,3.83,3.83,0,0,1,1.49.59,1.15,1.15,0,0,1,.49,1,1.37,1.37,0,0,1-.57,1.14,2.37,2.37,0,0,1-1.48.44,2.26,2.26,0,0,1-1.59-.52,1.46,1.46,0,0,1-.56-1.19v0h.92a.87.87,0,0,0,.38.74,1.48,1.48,0,0,0,.84.24,1.33,1.33,0,0,0,.8-.21A.65.65,0,0,0,206.12,256.66Z"/><path class="cls-7" d="M211.16,258.06v-4.57h-.82v-.71h.82v-.67a1.77,1.77,0,0,1,.45-1.3,1.6,1.6,0,0,1,1.23-.47,1.84,1.84,0,0,1,.33,0l.38.08-.12.73-.21,0-.26,0a.77.77,0,0,0-.63.25,1.11,1.11,0,0,0-.2.73v.67h1.1v.71h-1.1v4.57Z"/><path class="cls-7" d="M216.72,253.63l-.5,0a1.12,1.12,0,0,0-.64.18,1.15,1.15,0,0,0-.4.51v3.77h-1v-5.28h.86l.09.77a1.92,1.92,0,0,1,.55-.64,1.34,1.34,0,0,1,.76-.23l.21,0a.62.62,0,0,1,.16,0Z"/><path class="cls-7" d="M217.32,255.37a2.88,2.88,0,0,1,.64-1.93,2.13,2.13,0,0,1,1.72-.76,2.18,2.18,0,0,1,1.74.76,2.93,2.93,0,0,1,.63,1.93v.11a2.94,2.94,0,0,1-.63,1.94,2.14,2.14,0,0,1-1.73.75,2.12,2.12,0,0,1-1.73-.76,2.85,2.85,0,0,1-.64-1.93Zm1,.11a2.44,2.44,0,0,0,.36,1.38,1.27,1.27,0,0,0,2.09,0,2.44,2.44,0,0,0,.36-1.38v-.11a2.49,2.49,0,0,0-.36-1.38,1.17,1.17,0,0,0-1-.55,1.14,1.14,0,0,0-1,.55,2.49,2.49,0,0,0-.36,1.38Z"/><path class="cls-7" d="M224.09,252.78l.07.69a1.81,1.81,0,0,1,.65-.58,2,2,0,0,1,.93-.21,1.61,1.61,0,0,1,.91.25,1.4,1.4,0,0,1,.56.73,2,2,0,0,1,.66-.71,1.74,1.74,0,0,1,1-.27,1.57,1.57,0,0,1,1.27.56,2.48,2.48,0,0,1,.47,1.67v3.15h-1V254.9a1.77,1.77,0,0,0-.27-1.11,1,1,0,0,0-.8-.33,1,1,0,0,0-.8.35,1.43,1.43,0,0,0-.35.86v3.39h-1V254.9a1.7,1.7,0,0,0-.28-1.09,1,1,0,0,0-.79-.35,1.33,1.33,0,0,0-.72.19,1.19,1.19,0,0,0-.44.5v3.91h-1v-5.28Z"/><path class="cls-7" d="M235.6,255v3.08h-1V251h2.57a2.66,2.66,0,0,1,1.78.52,1.84,1.84,0,0,1,.62,1.5,1.6,1.6,0,0,1-.29,1,2,2,0,0,1-.83.65,1.44,1.44,0,0,1,.84.62,2,2,0,0,1,.26,1.05v.67a2.25,2.25,0,0,0,.07.6.93.93,0,0,0,.25.43v.11h-1a.79.79,0,0,1-.24-.48,3.71,3.71,0,0,1-.05-.67v-.65a1.33,1.33,0,0,0-.34-.93,1.22,1.22,0,0,0-.9-.35Zm0-.75h1.51a1.83,1.83,0,0,0,1.18-.31,1.41,1.41,0,0,0,0-1.87,1.56,1.56,0,0,0-1.09-.33H235.6Z"/><path class="cls-7" d="M243.27,258.17a2.22,2.22,0,0,1-1.75-.74,2.72,2.72,0,0,1-.65-1.9v-.22a2.71,2.71,0,0,1,.67-1.88,2.08,2.08,0,0,1,1.59-.75,2,2,0,0,1,1.61.65,2.54,2.54,0,0,1,.55,1.72v.6h-3.43v0a2.13,2.13,0,0,0,.38,1.25,1.23,1.23,0,0,0,1,.49,2.46,2.46,0,0,0,.86-.14,1.94,1.94,0,0,0,.64-.38l.37.62a2,2,0,0,1-.74.47A3.14,3.14,0,0,1,243.27,258.17Zm-.14-4.73a1.07,1.07,0,0,0-.83.41,1.88,1.88,0,0,0-.42,1v0h2.44v-.13a1.47,1.47,0,0,0-.3-.94A1.11,1.11,0,0,0,243.13,253.44Z"/><path class="cls-7" d="M246.15,255.52a3.58,3.58,0,0,1,.54-2.06,1.78,1.78,0,0,1,1.53-.78,1.94,1.94,0,0,1,.82.17,1.76,1.76,0,0,1,.62.5v-2.9h1v7.61h-.79l-.11-.64a1.8,1.8,0,0,1-.64.56,2,2,0,0,1-.87.19,1.82,1.82,0,0,1-1.51-.7,2.91,2.91,0,0,1-.55-1.85Zm1,.1a2.21,2.21,0,0,0,.33,1.28,1.13,1.13,0,0,0,1,.49,1.3,1.3,0,0,0,.73-.2,1.53,1.53,0,0,0,.48-.55v-2.46a1.53,1.53,0,0,0-.49-.52,1.24,1.24,0,0,0-.71-.2,1.11,1.11,0,0,0-1,.58,2.92,2.92,0,0,0-.33,1.48Z"/><path class="cls-7" d="M255.12,256.66a.64.64,0,0,0-.24-.52,2.16,2.16,0,0,0-.91-.36,3.83,3.83,0,0,1-1.45-.57,1.16,1.16,0,0,1-.49-1,1.38,1.38,0,0,1,.55-1.09,2.46,2.46,0,0,1,2.89,0,1.36,1.36,0,0,1,.52,1.15v0h-.91a.84.84,0,0,0-.29-.62,1.06,1.06,0,0,0-.77-.28,1.12,1.12,0,0,0-.77.23.7.7,0,0,0-.24.54.59.59,0,0,0,.22.49,2.16,2.16,0,0,0,.89.32,3.9,3.9,0,0,1,1.49.59,1.17,1.17,0,0,1,.49,1,1.37,1.37,0,0,1-.57,1.14,2.4,2.4,0,0,1-1.49.44,2.29,2.29,0,0,1-1.59-.52,1.45,1.45,0,0,1-.55-1.19v0h.91a.87.87,0,0,0,.39.74,1.42,1.42,0,0,0,.83.24,1.33,1.33,0,0,0,.8-.21A.62.62,0,0,0,255.12,256.66Z"/><path class="cls-7" d="M258.24,253.49a2,2,0,0,1,.68-.59,1.74,1.74,0,0,1,.88-.22,1.69,1.69,0,0,1,1.31.51,2.21,2.21,0,0,1,.47,1.56v3.31h-1v-3.32a1.39,1.39,0,0,0-.28-1,1.06,1.06,0,0,0-.84-.32,1.49,1.49,0,0,0-.72.19,1.65,1.65,0,0,0-.54.51v3.9h-1v-7.61h1Z"/><path class="cls-7" d="M264,251.43h-1v-1h1Zm0,6.63h-1v-5.28h1Z"/><path class="cls-7" d="M265.89,258.06v-4.57h-.83v-.71h.83v-.67a1.77,1.77,0,0,1,.44-1.3,1.6,1.6,0,0,1,1.23-.47l.34,0,.37.08-.12.73-.21,0-.26,0a.77.77,0,0,0-.63.25,1.18,1.18,0,0,0-.2.73v.67H268v.71h-1.1v4.57Z"/><path class="cls-7" d="M270.21,251.51v1.27h1v.71h-1v3.21a.72.72,0,0,0,.15.52.53.53,0,0,0,.41.16l.18,0,.18-.05.13.66a.87.87,0,0,1-.32.14,1.47,1.47,0,0,1-.42.06,1.23,1.23,0,0,1-.93-.36,1.52,1.52,0,0,1-.34-1.11v-3.21h-.84v-.71h.84v-1.27Z"/><path class="cls-7" d="M273.44,258.06h-1v-1h1Z"/><path class="cls-7" d="M282.93,251v4.81a2.16,2.16,0,0,1-.75,1.78,3,3,0,0,1-2,.62,2.84,2.84,0,0,1-1.9-.62,2.18,2.18,0,0,1-.73-1.78V251h1v4.81A1.55,1.55,0,0,0,279,257a1.71,1.71,0,0,0,1.21.42,1.87,1.87,0,0,0,1.27-.42,1.5,1.5,0,0,0,.49-1.22V251Z"/><path class="cls-7" d="M285.18,252.78l.07.79a2,2,0,0,1,.66-.65,1.93,1.93,0,0,1,2.23.26,2.23,2.23,0,0,1,.47,1.55v3.33h-1v-3.31a1.38,1.38,0,0,0-.28-1,1.08,1.08,0,0,0-.84-.3,1.28,1.28,0,0,0-.73.21,1.33,1.33,0,0,0-.51.54v3.85h-1v-5.28Z"/><path class="cls-7" d="M291.05,258.06h-1v-7.61h1Z"/><path class="cls-7" d="M292.3,255.37a2.88,2.88,0,0,1,.64-1.93,2.13,2.13,0,0,1,1.72-.76,2.18,2.18,0,0,1,1.74.76,2.93,2.93,0,0,1,.63,1.93v.11a2.94,2.94,0,0,1-.63,1.94,2.14,2.14,0,0,1-1.73.75,2.12,2.12,0,0,1-1.73-.76,2.85,2.85,0,0,1-.64-1.93Zm1,.11a2.44,2.44,0,0,0,.36,1.38,1.28,1.28,0,0,0,2.1,0,2.52,2.52,0,0,0,.35-1.38v-.11a2.49,2.49,0,0,0-.36-1.38,1.17,1.17,0,0,0-1-.55,1.14,1.14,0,0,0-1,.55,2.49,2.49,0,0,0-.36,1.38Z"/><path class="cls-7" d="M301.46,258.06c0-.15-.06-.3-.08-.42a2.22,2.22,0,0,1,0-.37,2.16,2.16,0,0,1-.7.64,1.81,1.81,0,0,1-.93.26,1.7,1.7,0,0,1-1.26-.43,1.52,1.52,0,0,1-.43-1.16,1.35,1.35,0,0,1,.61-1.18,2.85,2.85,0,0,1,1.67-.43h1v-.52a1,1,0,0,0-.28-.74,1.12,1.12,0,0,0-.8-.27,1.17,1.17,0,0,0-.76.24.7.7,0,0,0-.29.57h-.92v0a1.29,1.29,0,0,1,.55-1.06,2.52,2.52,0,0,1,2.93,0,1.62,1.62,0,0,1,.54,1.32V257a4.93,4.93,0,0,0,0,.55,2.89,2.89,0,0,0,.11.51Zm-1.6-.7a1.69,1.69,0,0,0,.94-.27,1.24,1.24,0,0,0,.55-.62v-.85h-1.08a1.42,1.42,0,0,0-.93.29.89.89,0,0,0-.35.69.69.69,0,0,0,.22.55A.91.91,0,0,0,299.86,257.36Z"/><path class="cls-7" d="M303.49,255.52a3.58,3.58,0,0,1,.54-2.06,1.76,1.76,0,0,1,1.53-.78,1.94,1.94,0,0,1,.82.17,1.64,1.64,0,0,1,.61.5v-2.9h1v7.61h-.79l-.11-.64a1.8,1.8,0,0,1-.64.56,2,2,0,0,1-.87.19,1.81,1.81,0,0,1-1.51-.7,2.91,2.91,0,0,1-.55-1.85Zm1,.1a2.21,2.21,0,0,0,.33,1.28,1.12,1.12,0,0,0,1,.49,1.3,1.3,0,0,0,.73-.2,1.42,1.42,0,0,0,.47-.55v-2.46a1.42,1.42,0,0,0-.48-.52,1.24,1.24,0,0,0-.71-.2,1.11,1.11,0,0,0-1,.58,2.92,2.92,0,0,0-.33,1.48Z"/><path class="cls-7" d="M315,256.66a.64.64,0,0,0-.24-.52,2.22,2.22,0,0,0-.92-.36,3.9,3.9,0,0,1-1.45-.57,1.15,1.15,0,0,1-.48-1,1.37,1.37,0,0,1,.54-1.09,2.47,2.47,0,0,1,2.9,0,1.42,1.42,0,0,1,.52,1.15v0h-.92a.84.84,0,0,0-.29-.62,1,1,0,0,0-.77-.28,1.1,1.1,0,0,0-.76.23.68.68,0,0,0-.25.54.59.59,0,0,0,.22.49,2.22,2.22,0,0,0,.89.32,3.83,3.83,0,0,1,1.49.59,1.15,1.15,0,0,1,.49,1,1.37,1.37,0,0,1-.57,1.14,2.38,2.38,0,0,1-1.49.44,2.29,2.29,0,0,1-1.59-.52,1.47,1.47,0,0,1-.55-1.19v0h.92a.87.87,0,0,0,.38.74,1.47,1.47,0,0,0,.83.24,1.37,1.37,0,0,0,.81-.21A.65.65,0,0,0,315,256.66Z"/><path class="cls-7" d="M321.61,255.62a2.91,2.91,0,0,1-.55,1.85,1.82,1.82,0,0,1-1.51.7,2,2,0,0,1-.85-.17,1.59,1.59,0,0,1-.63-.49v2.59h-1v-7.32h.73l.16.68a1.78,1.78,0,0,1,.64-.58,2,2,0,0,1,.9-.2,1.75,1.75,0,0,1,1.52.78,3.49,3.49,0,0,1,.55,2.06Zm-1-.1a2.77,2.77,0,0,0-.36-1.48,1.15,1.15,0,0,0-1-.58,1.34,1.34,0,0,0-.71.19,1.48,1.48,0,0,0-.47.52v2.55a1.25,1.25,0,0,0,1.19.69,1.2,1.2,0,0,0,1-.5,2.21,2.21,0,0,0,.35-1.29Z"/><path class="cls-7" d="M325,258.17a2.22,2.22,0,0,1-1.75-.74,2.72,2.72,0,0,1-.65-1.9v-.22a2.71,2.71,0,0,1,.67-1.88,2,2,0,0,1,1.59-.75,2,2,0,0,1,1.61.65,2.54,2.54,0,0,1,.55,1.72v.6h-3.43v0a2.13,2.13,0,0,0,.38,1.25,1.23,1.23,0,0,0,1,.49,2.5,2.5,0,0,0,.86-.14,1.94,1.94,0,0,0,.64-.38l.37.62a2.09,2.09,0,0,1-.74.47A3.14,3.14,0,0,1,325,258.17Zm-.14-4.73a1.05,1.05,0,0,0-.83.41,1.88,1.88,0,0,0-.42,1v0H326v-.13a1.42,1.42,0,0,0-.31-.94A1.08,1.08,0,0,0,324.84,253.44Z"/><path class="cls-7" d="M330.27,258.17a2.22,2.22,0,0,1-1.75-.74,2.73,2.73,0,0,1-.66-1.9v-.22a2.71,2.71,0,0,1,.68-1.88,2,2,0,0,1,1.58-.75,2,2,0,0,1,1.62.65,2.54,2.54,0,0,1,.55,1.72v.6h-3.43v0a2,2,0,0,0,.38,1.25,1.23,1.23,0,0,0,1,.49,2.5,2.5,0,0,0,.86-.14,2,2,0,0,0,.64-.38l.37.62a2.14,2.14,0,0,1-.75.47A3.08,3.08,0,0,1,330.27,258.17Zm-.15-4.73a1,1,0,0,0-.82.41,1.88,1.88,0,0,0-.42,1v0h2.44v-.13a1.48,1.48,0,0,0-.31-.94A1.09,1.09,0,0,0,330.12,253.44Z"/><path class="cls-7" d="M333.15,255.52a3.58,3.58,0,0,1,.54-2.06,1.75,1.75,0,0,1,1.53-.78,1.94,1.94,0,0,1,.82.17,1.73,1.73,0,0,1,.61.5v-2.9h1v7.61h-.78l-.11-.64a1.89,1.89,0,0,1-.64.56,2,2,0,0,1-.87.19,1.84,1.84,0,0,1-1.52-.7,3,3,0,0,1-.54-1.85Zm1,.1a2.21,2.21,0,0,0,.33,1.28,1.11,1.11,0,0,0,1,.49,1.25,1.25,0,0,0,.72-.2,1.36,1.36,0,0,0,.48-.55v-2.46a1.42,1.42,0,0,0-.48-.52,1.24,1.24,0,0,0-.71-.2,1.11,1.11,0,0,0-1,.58,2.92,2.92,0,0,0-.33,1.48Z"/><path class="cls-7" d="M342.58,251.43h-1v-1h1Zm0,6.63h-1v-5.28h1Z"/><path class="cls-7" d="M347.13,256.66a.63.63,0,0,0-.25-.52,2.16,2.16,0,0,0-.91-.36,3.9,3.9,0,0,1-1.45-.57,1.15,1.15,0,0,1-.48-1,1.37,1.37,0,0,1,.54-1.09,2.14,2.14,0,0,1,1.43-.46,2.17,2.17,0,0,1,1.47.48,1.42,1.42,0,0,1,.52,1.15v0h-.92a.84.84,0,0,0-.29-.62,1.06,1.06,0,0,0-.77-.28,1.1,1.1,0,0,0-.76.23.68.68,0,0,0-.25.54.59.59,0,0,0,.22.49,2.16,2.16,0,0,0,.89.32,3.9,3.9,0,0,1,1.49.59,1.15,1.15,0,0,1,.49,1,1.37,1.37,0,0,1-.57,1.14,2.4,2.4,0,0,1-1.49.44,2.29,2.29,0,0,1-1.59-.52,1.45,1.45,0,0,1-.55-1.19v0h.92a.84.84,0,0,0,.38.74,1.45,1.45,0,0,0,.83.24,1.39,1.39,0,0,0,.81-.21A.65.65,0,0,0,347.13,256.66Z"/></g><g class="cls-6"><path class="cls-7" d="M72.81,267.62a2.91,2.91,0,0,1-.55,1.85,1.84,1.84,0,0,1-1.51.7,1.88,1.88,0,0,1-.91-.21,1.64,1.64,0,0,1-.64-.59l-.12.69H68.3v-7.61h1v3a1.6,1.6,0,0,1,.62-.54,1.91,1.91,0,0,1,.86-.19,1.75,1.75,0,0,1,1.52.78,3.51,3.51,0,0,1,.55,2.06Zm-1-.1a2.85,2.85,0,0,0-.34-1.48,1.1,1.1,0,0,0-1-.58,1.28,1.28,0,0,0-.75.22,1.5,1.5,0,0,0-.49.59v2.29a1.58,1.58,0,0,0,.49.61,1.29,1.29,0,0,0,.76.22,1.16,1.16,0,0,0,1-.49,2.23,2.23,0,0,0,.33-1.28Z"/><path class="cls-7" d="M73.76,267.37a2.93,2.93,0,0,1,.63-1.93,2.35,2.35,0,0,1,3.46,0,2.88,2.88,0,0,1,.64,1.93v.11a2.89,2.89,0,0,1-.64,1.94,2.36,2.36,0,0,1-3.46,0,2.89,2.89,0,0,1-.63-1.93Zm1,.11a2.52,2.52,0,0,0,.35,1.38,1.28,1.28,0,0,0,2.1,0,2.44,2.44,0,0,0,.36-1.38v-.11a2.49,2.49,0,0,0-.36-1.38,1.28,1.28,0,0,0-2.1,0,2.57,2.57,0,0,0-.35,1.38Z"/><path class="cls-7" d="M83,269.28a1.84,1.84,0,0,1-.64.66,1.77,1.77,0,0,1-.9.23,1.72,1.72,0,0,1-1.35-.55,2.6,2.6,0,0,1-.48-1.72v-3.12h1v3.13a1.93,1.93,0,0,0,.25,1.16.91.91,0,0,0,.77.32,1.55,1.55,0,0,0,.85-.21,1.4,1.4,0,0,0,.51-.59v-3.81h1v5.28h-.87Z"/><path class="cls-7" d="M86.21,264.78l.07.79a1.79,1.79,0,0,1,.66-.65,1.71,1.71,0,0,1,.9-.24,1.76,1.76,0,0,1,1.33.5,2.23,2.23,0,0,1,.47,1.55v3.33h-1v-3.31a1.43,1.43,0,0,0-.27-1,1.1,1.1,0,0,0-.84-.3,1.31,1.31,0,0,0-.74.21,1.47,1.47,0,0,0-.51.54v3.85h-1v-5.28Z"/><path class="cls-7" d="M90.81,267.52a3.51,3.51,0,0,1,.55-2.06,1.75,1.75,0,0,1,1.52-.78,2,2,0,0,1,.83.17,1.73,1.73,0,0,1,.61.5v-2.9h1v7.61h-.79l-.11-.64a1.77,1.77,0,0,1-.63.56,2,2,0,0,1-.88.19,1.82,1.82,0,0,1-1.51-.7,3,3,0,0,1-.55-1.85Zm1,.1a2.21,2.21,0,0,0,.33,1.28,1.14,1.14,0,0,0,1,.49,1.27,1.27,0,0,0,.72-.2,1.36,1.36,0,0,0,.48-.55v-2.46a1.5,1.5,0,0,0-.48-.52,1.28,1.28,0,0,0-.71-.2,1.12,1.12,0,0,0-1,.58,2.92,2.92,0,0,0-.33,1.48Z"/><path class="cls-7" d="M98.91,270.17a2.24,2.24,0,0,1-1.76-.74,2.77,2.77,0,0,1-.65-1.9v-.22a2.75,2.75,0,0,1,.67-1.88,2.08,2.08,0,0,1,1.59-.75,2,2,0,0,1,1.62.65,2.59,2.59,0,0,1,.55,1.72v.6H97.5l0,0a2.07,2.07,0,0,0,.39,1.25,1.22,1.22,0,0,0,1,.49,2.54,2.54,0,0,0,.86-.14,2,2,0,0,0,.63-.38l.38.62a2.14,2.14,0,0,1-.75.47A3.08,3.08,0,0,1,98.91,270.17Zm-.15-4.73a1,1,0,0,0-.82.41,1.88,1.88,0,0,0-.42,1v0H100v-.13a1.47,1.47,0,0,0-.3-.94A1.09,1.09,0,0,0,98.76,265.44Z"/><path class="cls-7" d="M101.78,267.52a3.58,3.58,0,0,1,.55-2.06,1.75,1.75,0,0,1,1.52-.78,2,2,0,0,1,.83.17,1.73,1.73,0,0,1,.61.5v-2.9h1v7.61h-.78l-.12-.64a1.77,1.77,0,0,1-.63.56,2,2,0,0,1-.87.19,1.84,1.84,0,0,1-1.52-.7,3,3,0,0,1-.55-1.85Zm1,.1a2.29,2.29,0,0,0,.32,1.28,1.14,1.14,0,0,0,1,.49,1.25,1.25,0,0,0,.72-.2,1.36,1.36,0,0,0,.48-.55v-2.46a1.42,1.42,0,0,0-.48-.52,1.26,1.26,0,0,0-.71-.2,1.11,1.11,0,0,0-1,.58,2.92,2.92,0,0,0-.33,1.48Z"/><path class="cls-7" d="M114.69,267.62a3,3,0,0,1-.55,1.85,2,2,0,0,1-2.42.49,1.64,1.64,0,0,1-.64-.59l-.12.69h-.79v-7.61h1v3a1.57,1.57,0,0,1,.61-.54,2,2,0,0,1,.86-.19,1.76,1.76,0,0,1,1.53.78,3.58,3.58,0,0,1,.55,2.06Zm-1-.1a3,3,0,0,0-.33-1.48,1.11,1.11,0,0,0-1-.58,1.28,1.28,0,0,0-.75.22,1.56,1.56,0,0,0-.48.59v2.29a1.56,1.56,0,0,0,.48.61,1.29,1.29,0,0,0,.76.22,1.15,1.15,0,0,0,1-.49,2.23,2.23,0,0,0,.33-1.28Z"/><path class="cls-7" d="M117.42,268.11l.17.66h0l1.3-4H120l-2.22,6.1a2.82,2.82,0,0,1-.58.92,1.3,1.3,0,0,1-1,.4l-.29,0-.28-.05.1-.76h.17l.26,0a.58.58,0,0,0,.5-.28,2.89,2.89,0,0,0,.33-.6l.22-.55-2-5.18h1.08Z"/><path class="cls-7" d="M124.93,268.11l.17.66h0l1.3-4h1.07l-2.22,6.1a2.64,2.64,0,0,1-.57.92,1.31,1.31,0,0,1-1,.4l-.3,0-.28-.05.1-.76h.17l.26,0a.58.58,0,0,0,.5-.28,2.89,2.89,0,0,0,.33-.6l.23-.55-2-5.18h1.07Z"/><path class="cls-7" d="M128.05,267.37a2.93,2.93,0,0,1,.63-1.93,2.35,2.35,0,0,1,3.46,0,2.88,2.88,0,0,1,.64,1.93v.11a2.94,2.94,0,0,1-.63,1.94,2.16,2.16,0,0,1-1.73.75,2.12,2.12,0,0,1-1.73-.76,2.85,2.85,0,0,1-.64-1.93Zm1,.11a2.44,2.44,0,0,0,.36,1.38,1.27,1.27,0,0,0,2.09,0,2.44,2.44,0,0,0,.36-1.38v-.11a2.49,2.49,0,0,0-.36-1.38,1.17,1.17,0,0,0-1.05-.55,1.14,1.14,0,0,0-1,.55,2.49,2.49,0,0,0-.36,1.38Z"/><path class="cls-7" d="M137.31,269.28a1.7,1.7,0,0,1-1.54.89,1.72,1.72,0,0,1-1.35-.55,2.6,2.6,0,0,1-.48-1.72v-3.12h1v3.13a1.93,1.93,0,0,0,.25,1.16.92.92,0,0,0,.78.32,1.54,1.54,0,0,0,.84-.21,1.34,1.34,0,0,0,.51-.59v-3.81h1v5.28h-.86Z"/><path class="cls-7" d="M142.14,265.63l-.49,0a1.08,1.08,0,0,0-.64.18,1.16,1.16,0,0,0-.41.51v3.77h-1v-5.28h.86l.09.77a2,2,0,0,1,.56-.64,1.31,1.31,0,0,1,.76-.23l.2,0,.16,0Z"/><path class="cls-7" d="M147.7,269.41a1.32,1.32,0,0,0,.84-.29.9.9,0,0,0,.37-.73h.86v0a1.44,1.44,0,0,1-.61,1.21,2.19,2.19,0,0,1-1.47.54,2.14,2.14,0,0,1-1.76-.75,2.92,2.92,0,0,1-.61-1.89v-.21a2.87,2.87,0,0,1,.61-1.88,2.4,2.4,0,0,1,3.28-.21,1.71,1.71,0,0,1,.57,1.34v0h-.87a1.15,1.15,0,0,0-.34-.82,1.32,1.32,0,0,0-1.95.2,2.56,2.56,0,0,0-.32,1.34v.2a2.55,2.55,0,0,0,.32,1.35A1.15,1.15,0,0,0,147.7,269.41Z"/><path class="cls-7" d="M151.9,270.06h-1v-7.61h1Z"/><path class="cls-7" d="M156.74,269.28a1.84,1.84,0,0,1-.64.66,1.81,1.81,0,0,1-.91.23,1.71,1.71,0,0,1-1.34-.55,2.54,2.54,0,0,1-.49-1.72v-3.12h1v3.13a2,2,0,0,0,.25,1.16,1,1,0,0,0,.78.32,1.6,1.6,0,0,0,.85-.21,1.31,1.31,0,0,0,.5-.59v-3.81h1v5.28h-.86Z"/><path class="cls-7" d="M162.14,268.66a.63.63,0,0,0-.25-.52,2.16,2.16,0,0,0-.91-.36,3.83,3.83,0,0,1-1.45-.57,1.15,1.15,0,0,1-.48-1,1.37,1.37,0,0,1,.54-1.09,2.14,2.14,0,0,1,1.43-.46,2.17,2.17,0,0,1,1.47.48,1.42,1.42,0,0,1,.52,1.15v0h-.92a.84.84,0,0,0-.29-.62,1.06,1.06,0,0,0-.77-.28,1.1,1.1,0,0,0-.76.23.68.68,0,0,0-.25.54.59.59,0,0,0,.22.49,2.16,2.16,0,0,0,.89.32,3.9,3.9,0,0,1,1.49.59,1.15,1.15,0,0,1,.49,1,1.37,1.37,0,0,1-.57,1.14,2.4,2.4,0,0,1-1.49.44,2.29,2.29,0,0,1-1.59-.52,1.45,1.45,0,0,1-.55-1.19v0h.92a.84.84,0,0,0,.38.74,1.45,1.45,0,0,0,.83.24,1.39,1.39,0,0,0,.81-.21A.65.65,0,0,0,162.14,268.66Z"/><path class="cls-7" d="M165.56,263.51v1.27h1v.71h-1v3.21a.72.72,0,0,0,.16.52.53.53,0,0,0,.41.16l.18,0,.18-.05.12.66a.82.82,0,0,1-.31.14,1.52,1.52,0,0,1-.42.06,1.23,1.23,0,0,1-.93-.36,1.52,1.52,0,0,1-.35-1.11v-3.21h-.84v-.71h.84v-1.27Z"/><path class="cls-7" d="M169.94,270.17a2.22,2.22,0,0,1-1.75-.74,2.72,2.72,0,0,1-.65-1.9v-.22a2.71,2.71,0,0,1,.67-1.88,2.08,2.08,0,0,1,1.59-.75,2,2,0,0,1,1.61.65,2.54,2.54,0,0,1,.55,1.72v.6h-3.43v0a2.13,2.13,0,0,0,.38,1.25,1.23,1.23,0,0,0,1,.49,2.46,2.46,0,0,0,.86-.14,1.94,1.94,0,0,0,.64-.38l.37.62a2.09,2.09,0,0,1-.74.47A3.14,3.14,0,0,1,169.94,270.17Zm-.14-4.73a1.07,1.07,0,0,0-.83.41,1.88,1.88,0,0,0-.42,1v0H171v-.13a1.47,1.47,0,0,0-.3-.94A1.11,1.11,0,0,0,169.8,265.44Z"/><path class="cls-7" d="M175.54,265.63l-.49,0a1.13,1.13,0,0,0-.65.18,1.22,1.22,0,0,0-.4.51v3.77h-1v-5.28h.86l.09.77a2,2,0,0,1,.56-.64,1.31,1.31,0,0,1,.76-.23l.2,0,.16,0Z"/><path class="cls-7" d="M181.1,269.41a1.32,1.32,0,0,0,.84-.29.9.9,0,0,0,.37-.73h.86v0a1.46,1.46,0,0,1-.61,1.21,2.19,2.19,0,0,1-1.47.54,2.14,2.14,0,0,1-1.76-.75,2.92,2.92,0,0,1-.61-1.89v-.21a2.87,2.87,0,0,1,.61-1.88,2.4,2.4,0,0,1,3.28-.21,1.71,1.71,0,0,1,.57,1.34v0h-.87a1.15,1.15,0,0,0-.34-.82,1.32,1.32,0,0,0-1.95.2,2.56,2.56,0,0,0-.33,1.34v.2a2.55,2.55,0,0,0,.33,1.35A1.15,1.15,0,0,0,181.1,269.41Z"/><path class="cls-7" d="M184,267.37a2.93,2.93,0,0,1,.63-1.93,2.35,2.35,0,0,1,3.46,0,2.93,2.93,0,0,1,.64,1.93v.11a2.89,2.89,0,0,1-.64,1.94,2.36,2.36,0,0,1-3.46,0,2.89,2.89,0,0,1-.63-1.93Zm1,.11a2.52,2.52,0,0,0,.35,1.38,1.28,1.28,0,0,0,2.1,0,2.44,2.44,0,0,0,.36-1.38v-.11a2.49,2.49,0,0,0-.36-1.38,1.28,1.28,0,0,0-2.1,0,2.57,2.57,0,0,0-.35,1.38Z"/><path class="cls-7" d="M190.8,264.78l.07.79a2,2,0,0,1,.66-.65,1.93,1.93,0,0,1,2.23.26,2.23,2.23,0,0,1,.47,1.55v3.33h-1v-3.31a1.38,1.38,0,0,0-.28-1,1.08,1.08,0,0,0-.84-.3,1.28,1.28,0,0,0-.73.21,1.33,1.33,0,0,0-.51.54v3.85h-1v-5.28Z"/><path class="cls-7" d="M196,270.06v-4.57h-.83v-.71H196v-.67a1.81,1.81,0,0,1,.44-1.3,1.62,1.62,0,0,1,1.23-.47l.34,0,.37.08-.12.73-.21,0-.26,0a.77.77,0,0,0-.63.25,1.18,1.18,0,0,0-.2.73v.67h1.1v.71H197v4.57Z"/><path class="cls-7" d="M200.12,263.43h-1v-1h1Zm0,6.63h-1v-5.28h1Z"/><path class="cls-7" d="M201.39,267.52a3.44,3.44,0,0,1,.56-2.06,1.78,1.78,0,0,1,1.53-.78,1.83,1.83,0,0,1,.89.21,1.74,1.74,0,0,1,.63.58l.12-.69h.77v5.31a2,2,0,0,1-.59,1.56,2.43,2.43,0,0,1-1.71.55,3.57,3.57,0,0,1-.82-.11,3.1,3.1,0,0,1-.78-.28l.24-.75a2.44,2.44,0,0,0,.63.24,3,3,0,0,0,.72.09,1.4,1.4,0,0,0,1-.32,1.32,1.32,0,0,0,.32-1v-.59a1.66,1.66,0,0,1-.62.5,2,2,0,0,1-.83.17,1.84,1.84,0,0,1-1.52-.71,2.81,2.81,0,0,1-.56-1.84Zm1,.1a2.16,2.16,0,0,0,.34,1.28,1.16,1.16,0,0,0,1,.49,1.28,1.28,0,0,0,.73-.2,1.39,1.39,0,0,0,.48-.56V266.2a1.4,1.4,0,0,0-.48-.54,1.29,1.29,0,0,0-.72-.2,1.13,1.13,0,0,0-1,.58,2.85,2.85,0,0,0-.34,1.48Z"/><path class="cls-7" d="M210.64,269.28a1.84,1.84,0,0,1-.64.66,1.78,1.78,0,0,1-.91.23,1.71,1.71,0,0,1-1.34-.55,2.54,2.54,0,0,1-.49-1.72v-3.12h1v3.13a2,2,0,0,0,.24,1.16,1,1,0,0,0,.78.32,1.6,1.6,0,0,0,.85-.21,1.31,1.31,0,0,0,.5-.59v-3.81h1v5.28h-.86Z"/><path class="cls-7" d="M215.47,265.63l-.5,0a1.12,1.12,0,0,0-.64.18,1.15,1.15,0,0,0-.4.51v3.77h-1v-5.28h.86l.09.77a1.92,1.92,0,0,1,.55-.64,1.34,1.34,0,0,1,.76-.23l.21,0,.16,0Z"/><path class="cls-7" d="M219.64,270.06a4.07,4.07,0,0,1-.07-.42c0-.12,0-.24,0-.37a2.16,2.16,0,0,1-.7.64,1.81,1.81,0,0,1-.93.26,1.66,1.66,0,0,1-1.25-.43,1.53,1.53,0,0,1-.44-1.16,1.36,1.36,0,0,1,.62-1.18,2.8,2.8,0,0,1,1.66-.43h1v-.52a1,1,0,0,0-.28-.74,1.31,1.31,0,0,0-1.55,0,.69.69,0,0,0-.3.57h-.91v0a1.28,1.28,0,0,1,.54-1.06,2.52,2.52,0,0,1,2.93,0,1.63,1.63,0,0,1,.55,1.32V269c0,.19,0,.37,0,.55a2.89,2.89,0,0,0,.11.51Zm-1.6-.7a1.73,1.73,0,0,0,1-.27,1.21,1.21,0,0,0,.54-.62v-.85h-1.08a1.46,1.46,0,0,0-.93.29.87.87,0,0,0-.34.69.69.69,0,0,0,.22.55A.88.88,0,0,0,218,269.36Z"/><path class="cls-7" d="M223.16,263.51v1.27h1v.71h-1v3.21a.67.67,0,0,0,.16.52.51.51,0,0,0,.4.16l.19,0,.17-.05.13.66a.9.9,0,0,1-.31.14,1.52,1.52,0,0,1-.42.06,1.23,1.23,0,0,1-.93-.36,1.52,1.52,0,0,1-.35-1.11v-3.21h-.84v-.71h.84v-1.27Z"/><path class="cls-7" d="M226.39,263.43h-1v-1h1Zm0,6.63h-1v-5.28h1Z"/><path class="cls-7" d="M227.64,267.37a2.93,2.93,0,0,1,.64-1.93,2.14,2.14,0,0,1,1.72-.76,2.18,2.18,0,0,1,1.74.76,2.93,2.93,0,0,1,.64,1.93v.11a2.94,2.94,0,0,1-.64,1.94,2.36,2.36,0,0,1-3.46,0,2.9,2.9,0,0,1-.64-1.93Zm1,.11a2.44,2.44,0,0,0,.35,1.38,1.28,1.28,0,0,0,2.1,0,2.52,2.52,0,0,0,.35-1.38v-.11a2.49,2.49,0,0,0-.36-1.38,1.27,1.27,0,0,0-2.09,0,2.48,2.48,0,0,0-.35,1.38Z"/><path class="cls-7" d="M234.41,264.78l.07.79a2,2,0,0,1,.66-.65,1.93,1.93,0,0,1,2.23.26,2.23,2.23,0,0,1,.47,1.55v3.33h-1v-3.31a1.38,1.38,0,0,0-.28-1,1.08,1.08,0,0,0-.84-.3,1.33,1.33,0,0,0-.74.21,1.47,1.47,0,0,0-.51.54v3.85h-1v-5.28Z"/><path class="cls-7" d="M240.29,270.06h-1v-1h1Z"/></g></g><g id="Graphic_192" data-name="Graphic 192"><circle class="cls-5" cx="49.9" cy="293" r="10"/><g class="cls-6"><path d="M53.12,296.48H47.59v-.8l2.8-3.1a7.32,7.32,0,0,0,1-1.33,2.07,2.07,0,0,0,.27-1,1.58,1.58,0,0,0-.37-1.07,1.25,1.25,0,0,0-1-.44,1.66,1.66,0,0,0-1.3.46,1.79,1.79,0,0,0-.42,1.27H47.48v0a2.4,2.4,0,0,1,.73-1.86,2.88,2.88,0,0,1,2.11-.75,2.48,2.48,0,0,1,1.83.68,2.25,2.25,0,0,1,.68,1.7,2.69,2.69,0,0,1-.41,1.4,8.23,8.23,0,0,1-1.16,1.5L49,295.54v0h4.1Z"/></g></g><g id="Graphic_191" data-name="Graphic 191"><g class="cls-6"><path class="cls-7" d="M73.75,289v4.82a2.16,2.16,0,0,1-.75,1.77,3,3,0,0,1-2,.62,2.84,2.84,0,0,1-1.9-.62,2.17,2.17,0,0,1-.73-1.77V289h1v4.81a1.53,1.53,0,0,0,.46,1.22,1.71,1.71,0,0,0,1.21.42A1.85,1.85,0,0,0,72.3,295a1.49,1.49,0,0,0,.49-1.22V289Z"/><path class="cls-7" d="M76,290.8l.07.79a2,2,0,0,1,.66-.65,1.74,1.74,0,0,1,.91-.23,1.69,1.69,0,0,1,1.32.5,2.18,2.18,0,0,1,.47,1.54v3.34h-1v-3.32a1.38,1.38,0,0,0-.28-1,1.07,1.07,0,0,0-.84-.29,1.27,1.27,0,0,0-.73.2,1.33,1.33,0,0,0-.51.54v3.86h-1V290.8Z"/><path class="cls-7" d="M81.87,296.09h-1v-7.62h1Z"/><path class="cls-7" d="M83.12,293.4a2.89,2.89,0,0,1,.64-1.94,2.12,2.12,0,0,1,1.72-.75,2.18,2.18,0,0,1,1.74.75,2.94,2.94,0,0,1,.63,1.94v.1a2.92,2.92,0,0,1-.63,1.94,2.14,2.14,0,0,1-1.73.75,2.12,2.12,0,0,1-1.73-.76,2.85,2.85,0,0,1-.64-1.93Zm1,.1a2.5,2.5,0,0,0,.36,1.39,1.29,1.29,0,0,0,2.1,0,2.58,2.58,0,0,0,.35-1.39v-.11a2.49,2.49,0,0,0-.36-1.38,1.19,1.19,0,0,0-1-.55,1.16,1.16,0,0,0-1,.55,2.49,2.49,0,0,0-.36,1.38Z"/><path class="cls-7" d="M92.28,296.09c0-.16-.06-.3-.08-.43a2.22,2.22,0,0,1,0-.37,2.16,2.16,0,0,1-.7.64,1.81,1.81,0,0,1-.93.26,1.74,1.74,0,0,1-1.26-.42,1.56,1.56,0,0,1-.43-1.17,1.35,1.35,0,0,1,.61-1.18,2.85,2.85,0,0,1,1.67-.43h1v-.52a1,1,0,0,0-.28-.74,1.12,1.12,0,0,0-.8-.27,1.17,1.17,0,0,0-.76.24.73.73,0,0,0-.29.57h-.92v0a1.29,1.29,0,0,1,.55-1.06,2.56,2.56,0,0,1,2.93,0,1.63,1.63,0,0,1,.54,1.32V295a4.93,4.93,0,0,0,0,.55,3.21,3.21,0,0,0,.11.52Zm-1.6-.71a1.69,1.69,0,0,0,.94-.27,1.26,1.26,0,0,0,.55-.61v-.86H91.09a1.42,1.42,0,0,0-.93.29.9.9,0,0,0-.35.69.73.73,0,0,0,.22.55A.91.91,0,0,0,90.68,295.38Z"/><path class="cls-7" d="M94.31,293.54a3.53,3.53,0,0,1,.54-2.05,1.78,1.78,0,0,1,1.53-.78,1.8,1.8,0,0,1,.82.17,1.62,1.62,0,0,1,.61.49v-2.9h1v7.62H98l-.11-.65a1.8,1.8,0,0,1-.64.56,2,2,0,0,1-.87.19,1.8,1.8,0,0,1-1.51-.7,2.89,2.89,0,0,1-.55-1.85Zm1,.1a2.24,2.24,0,0,0,.33,1.29,1.13,1.13,0,0,0,1,.48,1.3,1.3,0,0,0,.73-.2,1.46,1.46,0,0,0,.47-.54V292.2a1.42,1.42,0,0,0-.48-.52,1.23,1.23,0,0,0-.71-.19,1.1,1.1,0,0,0-1,.57,2.92,2.92,0,0,0-.33,1.48Z"/><path class="cls-7" d="M102.4,296.19a2.22,2.22,0,0,1-1.75-.74,2.72,2.72,0,0,1-.65-1.9v-.22a2.67,2.67,0,0,1,.67-1.87,2.08,2.08,0,0,1,1.59-.75,2,2,0,0,1,1.61.64,2.54,2.54,0,0,1,.55,1.72v.6H101v0a2.11,2.11,0,0,0,.38,1.25,1.23,1.23,0,0,0,1,.49,2.46,2.46,0,0,0,.86-.14,1.94,1.94,0,0,0,.64-.38l.37.63a2.13,2.13,0,0,1-.74.46A2.94,2.94,0,0,1,102.4,296.19Zm-.14-4.73a1.07,1.07,0,0,0-.83.41,2,2,0,0,0-.42,1v0h2.44v-.12a1.48,1.48,0,0,0-.3-1A1.09,1.09,0,0,0,102.26,291.46Z"/><path class="cls-7" d="M105.28,293.54a3.45,3.45,0,0,1,.55-2.05,1.75,1.75,0,0,1,1.52-.78,1.8,1.8,0,0,1,.82.17,1.73,1.73,0,0,1,.62.49v-2.9h1v7.62H109l-.11-.65a1.77,1.77,0,0,1-.63.56,2.07,2.07,0,0,1-.88.19,1.8,1.8,0,0,1-1.51-.7,2.89,2.89,0,0,1-.55-1.85Zm1,.1a2.24,2.24,0,0,0,.33,1.29,1.15,1.15,0,0,0,1,.48,1.29,1.29,0,0,0,.72-.2,1.58,1.58,0,0,0,.48-.54V292.2a1.61,1.61,0,0,0-.48-.52,1.28,1.28,0,0,0-.71-.19,1.1,1.1,0,0,0-1,.57,2.92,2.92,0,0,0-.33,1.48Z"/><path class="cls-7" d="M114.94,289.53v1.27h1v.72h-1v3.2a.75.75,0,0,0,.15.53.58.58,0,0,0,.41.15l.18,0,.18-.05.13.66a.87.87,0,0,1-.32.14,1.4,1.4,0,0,1-.41.06,1.25,1.25,0,0,1-.94-.36,1.52,1.52,0,0,1-.34-1.11v-3.2h-.84v-.72H114v-1.27Z"/><path class="cls-7" d="M120.37,296.09c0-.16-.05-.3-.07-.43a2.22,2.22,0,0,1,0-.37,2.26,2.26,0,0,1-.7.64,1.81,1.81,0,0,1-.93.26,1.73,1.73,0,0,1-1.26-.42,1.56,1.56,0,0,1-.43-1.17,1.35,1.35,0,0,1,.61-1.18,2.82,2.82,0,0,1,1.66-.43h1v-.52a1,1,0,0,0-.29-.74,1.11,1.11,0,0,0-.8-.27,1.13,1.13,0,0,0-.75.24.7.7,0,0,0-.29.57h-.92v0a1.28,1.28,0,0,1,.54-1.06,2.25,2.25,0,0,1,1.49-.47,2.2,2.2,0,0,1,1.44.45,1.61,1.61,0,0,1,.55,1.32V295a4.93,4.93,0,0,0,0,.55,3.18,3.18,0,0,0,.1.52Zm-1.59-.71a1.72,1.72,0,0,0,.94-.27,1.31,1.31,0,0,0,.55-.61v-.86h-1.08a1.42,1.42,0,0,0-.93.29.87.87,0,0,0-.35.69.69.69,0,0,0,.22.55A.89.89,0,0,0,118.78,295.38Z"/><path class="cls-7" d="M127.14,293.64a3,3,0,0,1-.55,1.85,1.81,1.81,0,0,1-1.51.7,2,2,0,0,1-.91-.2,1.75,1.75,0,0,1-.64-.6l-.12.7h-.79v-7.62h1v3a1.57,1.57,0,0,1,.61-.54,2,2,0,0,1,.87-.18,1.76,1.76,0,0,1,1.52.78,3.53,3.53,0,0,1,.55,2.05Zm-1-.1a3,3,0,0,0-.33-1.48,1.1,1.1,0,0,0-1-.57,1.32,1.32,0,0,0-.75.21,1.56,1.56,0,0,0-.48.59v2.29a1.56,1.56,0,0,0,.48.61,1.31,1.31,0,0,0,.76.22,1.13,1.13,0,0,0,1-.49,2.23,2.23,0,0,0,.33-1.28Z"/><path class="cls-7" d="M129.35,296.09h-1v-7.62h1Z"/><path class="cls-7" d="M133,296.19a2.24,2.24,0,0,1-1.76-.74,2.77,2.77,0,0,1-.65-1.9v-.22a2.71,2.71,0,0,1,.67-1.87,2.08,2.08,0,0,1,1.59-.75,2,2,0,0,1,1.62.64,2.59,2.59,0,0,1,.55,1.72v.6h-3.43l0,0a2,2,0,0,0,.39,1.25,1.22,1.22,0,0,0,1,.49,2.5,2.5,0,0,0,.86-.14,2,2,0,0,0,.63-.38l.38.63a2.28,2.28,0,0,1-.75.46A2.88,2.88,0,0,1,133,296.19Zm-.15-4.73a1,1,0,0,0-.82.41,1.88,1.88,0,0,0-.42,1v0h2.43v-.12a1.48,1.48,0,0,0-.3-1A1.09,1.09,0,0,0,132.87,291.46Z"/><path class="cls-7" d="M138.38,293.54a3.45,3.45,0,0,1,.55-2.05,1.75,1.75,0,0,1,1.52-.78,1.77,1.77,0,0,1,.82.17,1.73,1.73,0,0,1,.62.49v-2.9h1v7.62h-.79l-.11-.65a1.77,1.77,0,0,1-.63.56,2,2,0,0,1-.88.19,1.8,1.8,0,0,1-1.51-.7,2.89,2.89,0,0,1-.55-1.85Zm1,.1a2.24,2.24,0,0,0,.33,1.29,1.15,1.15,0,0,0,1,.48,1.29,1.29,0,0,0,.72-.2,1.58,1.58,0,0,0,.48-.54V292.2a1.61,1.61,0,0,0-.48-.52,1.28,1.28,0,0,0-.71-.19,1.1,1.1,0,0,0-1,.57,2.92,2.92,0,0,0-.33,1.48Z"/><path class="cls-7" d="M147.53,296.09a4.23,4.23,0,0,1-.07-.43c0-.12,0-.24,0-.37a2.06,2.06,0,0,1-.7.64,1.76,1.76,0,0,1-.93.26,1.7,1.7,0,0,1-1.25-.42,1.57,1.57,0,0,1-.44-1.17,1.36,1.36,0,0,1,.62-1.18,2.82,2.82,0,0,1,1.66-.43h1v-.52a1,1,0,0,0-.28-.74,1.11,1.11,0,0,0-.8-.27,1.13,1.13,0,0,0-.75.24.7.7,0,0,0-.29.57h-.92v0a1.28,1.28,0,0,1,.54-1.06,2.56,2.56,0,0,1,2.93,0,1.64,1.64,0,0,1,.55,1.32V295a4.93,4.93,0,0,0,0,.55,3.18,3.18,0,0,0,.1.52Zm-1.59-.71a1.72,1.72,0,0,0,.94-.27,1.24,1.24,0,0,0,.54-.61v-.86h-1.07a1.42,1.42,0,0,0-.93.29.87.87,0,0,0-.35.69.69.69,0,0,0,.22.55A.89.89,0,0,0,145.94,295.38Z"/><path class="cls-7" d="M151.05,289.53v1.27h1v.72h-1v3.2a.7.7,0,0,0,.16.53.54.54,0,0,0,.4.15l.19,0,.18-.05.12.66a.82.82,0,0,1-.31.14,1.52,1.52,0,0,1-.42.06,1.23,1.23,0,0,1-.93-.36,1.52,1.52,0,0,1-.35-1.11v-3.2h-.84v-.72h.84v-1.27Z"/><path class="cls-7" d="M156.49,296.09c0-.16-.06-.3-.08-.43a2.22,2.22,0,0,1,0-.37,2.16,2.16,0,0,1-.7.64,1.81,1.81,0,0,1-.93.26,1.74,1.74,0,0,1-1.26-.42,1.56,1.56,0,0,1-.43-1.17,1.35,1.35,0,0,1,.61-1.18,2.82,2.82,0,0,1,1.66-.43h1v-.52a1,1,0,0,0-.28-.74,1.12,1.12,0,0,0-.8-.27,1.15,1.15,0,0,0-.76.24.73.73,0,0,0-.29.57h-.92v0a1.27,1.27,0,0,1,.55-1.06,2.21,2.21,0,0,1,1.48-.47,2.18,2.18,0,0,1,1.44.45,1.61,1.61,0,0,1,.55,1.32V295a4.93,4.93,0,0,0,0,.55,3.21,3.21,0,0,0,.11.52Zm-1.6-.71a1.69,1.69,0,0,0,.94-.27,1.31,1.31,0,0,0,.55-.61v-.86H155.3a1.42,1.42,0,0,0-.93.29.9.9,0,0,0-.35.69.69.69,0,0,0,.22.55A.91.91,0,0,0,154.89,295.38Z"/><path class="cls-7" d="M162.26,289.45h-1v-1h1Zm0,6.64h-1V290.8h1Z"/><path class="cls-7" d="M166.81,294.68a.64.64,0,0,0-.24-.52,2.16,2.16,0,0,0-.91-.36,3.83,3.83,0,0,1-1.45-.57,1.15,1.15,0,0,1-.49-1,1.4,1.4,0,0,1,.55-1.1,2.17,2.17,0,0,1,1.43-.45,2.12,2.12,0,0,1,1.46.47,1.36,1.36,0,0,1,.52,1.15v0h-.91a.82.82,0,0,0-.3-.62,1,1,0,0,0-.76-.28,1.12,1.12,0,0,0-.77.23.71.71,0,0,0-.24.54.61.61,0,0,0,.21.49,2.28,2.28,0,0,0,.9.32,3.9,3.9,0,0,1,1.49.59,1.18,1.18,0,0,1,.49,1,1.36,1.36,0,0,1-.57,1.13,2.4,2.4,0,0,1-1.49.44,2.34,2.34,0,0,1-1.59-.51,1.46,1.46,0,0,1-.55-1.2v0h.91a.91.91,0,0,0,.39.75,1.5,1.5,0,0,0,.83.23,1.33,1.33,0,0,0,.8-.21A.61.61,0,0,0,166.81,294.68Z"/><path class="cls-7" d="M172.73,289.53v1.27h1v.72h-1v3.2a.75.75,0,0,0,.15.53.56.56,0,0,0,.41.15l.18,0,.18-.05.13.66a.87.87,0,0,1-.32.14,1.52,1.52,0,0,1-.42.06,1.23,1.23,0,0,1-.93-.36,1.52,1.52,0,0,1-.34-1.11v-3.2h-.84v-.72h.84v-1.27Z"/><path class="cls-7" d="M177.41,291.65l-.49,0a1.1,1.1,0,0,0-.64.18,1.08,1.08,0,0,0-.4.51v3.78h-1V290.8h.86l.1.77a1.92,1.92,0,0,1,.55-.64,1.31,1.31,0,0,1,.76-.22h.21l.16,0Z"/><path class="cls-7" d="M181.59,296.09c0-.16-.06-.3-.08-.43l0-.37a2.16,2.16,0,0,1-.7.64,1.81,1.81,0,0,1-.93.26,1.74,1.74,0,0,1-1.26-.42,1.6,1.6,0,0,1-.43-1.17,1.37,1.37,0,0,1,.61-1.18,2.85,2.85,0,0,1,1.67-.43h1v-.52a1,1,0,0,0-.28-.74,1.12,1.12,0,0,0-.8-.27,1.17,1.17,0,0,0-.76.24.73.73,0,0,0-.29.57h-.91v0a1.28,1.28,0,0,1,.54-1.06,2.56,2.56,0,0,1,2.93,0,1.63,1.63,0,0,1,.54,1.32V295a4.93,4.93,0,0,0,0,.55,3.21,3.21,0,0,0,.11.52Zm-1.6-.71a1.73,1.73,0,0,0,.95-.27,1.29,1.29,0,0,0,.54-.61v-.86H180.4a1.46,1.46,0,0,0-.93.29.9.9,0,0,0-.35.69.73.73,0,0,0,.22.55A.92.92,0,0,0,180,295.38Z"/><path class="cls-7" d="M184.7,290.8l.07.79a1.79,1.79,0,0,1,.66-.65,1.71,1.71,0,0,1,.91-.23,1.69,1.69,0,0,1,1.32.5,2.18,2.18,0,0,1,.47,1.54v3.34h-1v-3.32a1.43,1.43,0,0,0-.28-1,1.09,1.09,0,0,0-.84-.29,1.33,1.33,0,0,0-.74.2,1.47,1.47,0,0,0-.51.54v3.86h-1V290.8Z"/><path class="cls-7" d="M192.6,294.68a.65.65,0,0,0-.25-.52,2.16,2.16,0,0,0-.91-.36,3.83,3.83,0,0,1-1.45-.57,1.15,1.15,0,0,1-.49-1,1.4,1.4,0,0,1,.55-1.1,2.19,2.19,0,0,1,1.43-.45,2.12,2.12,0,0,1,1.46.47,1.36,1.36,0,0,1,.52,1.15v0h-.91a.84.84,0,0,0-.29-.62,1.06,1.06,0,0,0-.77-.28,1.1,1.1,0,0,0-.76.23.69.69,0,0,0-.25.54.59.59,0,0,0,.22.49,2.16,2.16,0,0,0,.89.32,3.9,3.9,0,0,1,1.49.59,1.18,1.18,0,0,1,.49,1,1.36,1.36,0,0,1-.57,1.13,2.4,2.4,0,0,1-1.49.44,2.34,2.34,0,0,1-1.59-.51,1.46,1.46,0,0,1-.55-1.2v0h.92a.87.87,0,0,0,.38.75,1.5,1.5,0,0,0,.83.23,1.33,1.33,0,0,0,.8-.21A.62.62,0,0,0,192.6,294.68Z"/><path class="cls-7" d="M195.15,296.09v-4.57h-.82v-.72h.82v-.67a1.77,1.77,0,0,1,.45-1.3,1.6,1.6,0,0,1,1.23-.46l.33,0,.38.08-.12.73-.21,0-.26,0a.8.8,0,0,0-.63.25,1.11,1.11,0,0,0-.2.73v.67h1.09v.72h-1.09v4.57Z"/><path class="cls-7" d="M200.28,296.19a2.21,2.21,0,0,1-1.75-.74,2.73,2.73,0,0,1-.66-1.9v-.22a2.71,2.71,0,0,1,.67-1.87,2.08,2.08,0,0,1,1.59-.75,2,2,0,0,1,1.62.64,2.54,2.54,0,0,1,.55,1.72v.6h-3.43l0,0a2,2,0,0,0,.39,1.25,1.22,1.22,0,0,0,1,.49,2.5,2.5,0,0,0,.86-.14,1.89,1.89,0,0,0,.63-.38l.38.63a2.28,2.28,0,0,1-.75.46A2.88,2.88,0,0,1,200.28,296.19Zm-.15-4.73a1,1,0,0,0-.82.41,1.88,1.88,0,0,0-.42,1v0h2.44v-.12a1.48,1.48,0,0,0-.31-1A1.09,1.09,0,0,0,200.13,291.46Z"/><path class="cls-7" d="M205.88,291.65l-.5,0a1.12,1.12,0,0,0-.64.18,1.15,1.15,0,0,0-.4.51v3.78h-1V290.8h.86l.09.77a1.92,1.92,0,0,1,.55-.64,1.33,1.33,0,0,1,.76-.22h.21l.16,0Z"/><path class="cls-7" d="M209.3,291.65l-.49,0a1.1,1.1,0,0,0-.64.18,1.08,1.08,0,0,0-.4.51v3.78h-1V290.8h.86l.1.77a1.92,1.92,0,0,1,.55-.64,1.31,1.31,0,0,1,.76-.22h.2l.17,0Z"/><path class="cls-7" d="M212.33,296.19a2.22,2.22,0,0,1-1.75-.74,2.73,2.73,0,0,1-.66-1.9v-.22a2.67,2.67,0,0,1,.68-1.87,2,2,0,0,1,1.59-.75,2,2,0,0,1,1.61.64,2.54,2.54,0,0,1,.55,1.72v.6h-3.43v0a2,2,0,0,0,.38,1.25,1.23,1.23,0,0,0,1,.49,2.5,2.5,0,0,0,.86-.14,2,2,0,0,0,.64-.38l.37.63a2.28,2.28,0,0,1-.75.46A2.85,2.85,0,0,1,212.33,296.19Zm-.14-4.73a1.05,1.05,0,0,0-.83.41,1.88,1.88,0,0,0-.42,1v0h2.44v-.12a1.43,1.43,0,0,0-.31-1A1.08,1.08,0,0,0,212.19,291.46Z"/><path class="cls-7" d="M215.21,293.54a3.53,3.53,0,0,1,.54-2.05,1.75,1.75,0,0,1,1.53-.78,1.8,1.8,0,0,1,.82.17,1.7,1.7,0,0,1,.61.49v-2.9h1v7.62h-.79l-.11-.65a1.89,1.89,0,0,1-.64.56,2,2,0,0,1-.87.19,1.82,1.82,0,0,1-1.52-.7,3,3,0,0,1-.54-1.85Zm1,.1a2.24,2.24,0,0,0,.33,1.29,1.12,1.12,0,0,0,1,.48,1.25,1.25,0,0,0,.72-.2,1.4,1.4,0,0,0,.48-.54V292.2a1.42,1.42,0,0,0-.48-.52,1.23,1.23,0,0,0-.71-.19,1.1,1.1,0,0,0-1,.57,2.92,2.92,0,0,0-.33,1.48Z"/><path class="cls-7" d="M224,296.09v-4.57h-.83v-.72H224v-.67a1.77,1.77,0,0,1,.44-1.3,1.6,1.6,0,0,1,1.23-.46l.34,0,.37.08-.12.73-.21,0-.26,0a.8.8,0,0,0-.63.25,1.18,1.18,0,0,0-.2.73v.67h1.1v.72H225v4.57Z"/><path class="cls-7" d="M229.55,291.65l-.49,0a1.13,1.13,0,0,0-.65.18,1.15,1.15,0,0,0-.4.51v3.78h-1V290.8h.86l.09.77a1.92,1.92,0,0,1,.55-.64,1.33,1.33,0,0,1,.76-.22h.21l.16,0Z"/><path class="cls-7" d="M230.15,293.4a2.94,2.94,0,0,1,.64-1.94,2.14,2.14,0,0,1,1.72-.75,2.18,2.18,0,0,1,1.74.75,2.94,2.94,0,0,1,.64,1.94v.1a2.92,2.92,0,0,1-.64,1.94,2.36,2.36,0,0,1-3.46,0,2.9,2.9,0,0,1-.64-1.93Zm1,.1a2.5,2.5,0,0,0,.35,1.39,1.29,1.29,0,0,0,2.1,0,2.58,2.58,0,0,0,.35-1.39v-.11a2.49,2.49,0,0,0-.36-1.38,1.27,1.27,0,0,0-2.09,0,2.48,2.48,0,0,0-.35,1.38Z"/><path class="cls-7" d="M236.92,290.8l.07.7a1.79,1.79,0,0,1,.66-.59,1.92,1.92,0,0,1,.92-.2,1.67,1.67,0,0,1,.91.24,1.51,1.51,0,0,1,.57.73,1.81,1.81,0,0,1,.66-.71,1.67,1.67,0,0,1,.95-.26,1.59,1.59,0,0,1,1.28.55,2.54,2.54,0,0,1,.47,1.67v3.16h-1v-3.17a1.85,1.85,0,0,0-.26-1.11,1,1,0,0,0-.81-.32,1,1,0,0,0-.79.34,1.4,1.4,0,0,0-.36.86v3.4h-1v-3.17a1.7,1.7,0,0,0-.28-1.09.94.94,0,0,0-.79-.34,1.33,1.33,0,0,0-.72.18,1.19,1.19,0,0,0-.44.5v3.92h-1V290.8Z"/><path class="cls-7" d="M251.34,294.3a1,1,0,0,0-.37-.82,3,3,0,0,0-1.29-.55,4.23,4.23,0,0,1-1.76-.79,1.63,1.63,0,0,1-.64-1.32,1.74,1.74,0,0,1,.68-1.39,2.74,2.74,0,0,1,1.77-.56,2.66,2.66,0,0,1,1.86.64,1.88,1.88,0,0,1,.66,1.49v0h-.91a1.29,1.29,0,0,0-.42-1,1.65,1.65,0,0,0-1.18-.39,1.62,1.62,0,0,0-1.1.33,1,1,0,0,0-.39.84.94.94,0,0,0,.42.78,4.24,4.24,0,0,0,1.35.54,3.9,3.9,0,0,1,1.71.82,1.75,1.75,0,0,1,.58,1.34,1.64,1.64,0,0,1-.7,1.39,3.06,3.06,0,0,1-1.84.52,3.15,3.15,0,0,1-1.88-.58,1.75,1.75,0,0,1-.79-1.55v0H248a1.19,1.19,0,0,0,.5,1,2.13,2.13,0,0,0,1.24.35,2,2,0,0,0,1.16-.3A1,1,0,0,0,251.34,294.3Z"/><path class="cls-7" d="M254.72,292.09h.84a1.1,1.1,0,0,0,.9-.32,1.35,1.35,0,0,0,.27-.89,1.3,1.3,0,0,0-.3-.93,1.19,1.19,0,0,0-.9-.32,1.25,1.25,0,0,0-.9.33,1.19,1.19,0,0,0-.34.88h-.92v0a1.72,1.72,0,0,1,.59-1.37,2.2,2.2,0,0,1,1.58-.57,2.29,2.29,0,0,1,1.58.53,1.91,1.91,0,0,1,.58,1.5,1.7,1.7,0,0,1-1.06,1.54,1.54,1.54,0,0,1,.9.66,2.09,2.09,0,0,1-.37,2.53,2.37,2.37,0,0,1-1.63.56,2.43,2.43,0,0,1-1.6-.53,1.68,1.68,0,0,1-.62-1.42l0,0h.92a1.18,1.18,0,0,0,.34.89,1.3,1.3,0,0,0,.94.33,1.33,1.33,0,0,0,1-.33,1.28,1.28,0,0,0-.93-2.26h-.84Z"/><path class="cls-7" d="M262.91,289.53v1.27h1v.72h-1v3.2a.75.75,0,0,0,.15.53.56.56,0,0,0,.41.15l.18,0,.18-.05.13.66a.87.87,0,0,1-.32.14,1.45,1.45,0,0,1-.41.06,1.24,1.24,0,0,1-.94-.36,1.52,1.52,0,0,1-.34-1.11v-3.2h-.84v-.72H262v-1.27Z"/><path class="cls-7" d="M264.87,293.4a2.89,2.89,0,0,1,.64-1.94,2.36,2.36,0,0,1,3.45,0,2.89,2.89,0,0,1,.64,1.94v.1a2.92,2.92,0,0,1-.63,1.94,2.16,2.16,0,0,1-1.73.75,2.12,2.12,0,0,1-1.73-.76,2.85,2.85,0,0,1-.64-1.93Zm1,.1a2.5,2.5,0,0,0,.36,1.39,1.28,1.28,0,0,0,2.09,0,2.5,2.5,0,0,0,.36-1.39v-.11a2.49,2.49,0,0,0-.36-1.38,1.19,1.19,0,0,0-1-.55,1.16,1.16,0,0,0-1,.55,2.49,2.49,0,0,0-.36,1.38Z"/><path class="cls-7" d="M273.44,296.09V289h2.32a2.82,2.82,0,0,1,1.75.48,1.7,1.7,0,0,1,.63,1.44,1.27,1.27,0,0,1-.31.85,1.74,1.74,0,0,1-.79.55,1.61,1.61,0,0,1,1,.63,1.84,1.84,0,0,1,.37,1.15,1.81,1.81,0,0,1-.63,1.49,2.67,2.67,0,0,1-1.72.52Zm1-4.09H276a1.29,1.29,0,0,0,.88-.3,1.17,1.17,0,0,0,0-1.68,1.66,1.66,0,0,0-1.05-.29h-1.35Zm0,.76v2.57h1.66a1.5,1.5,0,0,0,1-.32,1.16,1.16,0,0,0,.37-.92,1.42,1.42,0,0,0-.31-1,1.15,1.15,0,0,0-.94-.35Z"/><path class="cls-7" d="M280.7,289.45h-1v-1h1Zm0,6.64h-1V290.8h1Z"/><path class="cls-7" d="M282,293.54a3.45,3.45,0,0,1,.55-2.05,1.79,1.79,0,0,1,1.54-.78,1.76,1.76,0,0,1,.88.2,1.69,1.69,0,0,1,.64.58l.12-.69h.76v5.32a2,2,0,0,1-.59,1.56,2.43,2.43,0,0,1-1.7.54,4.26,4.26,0,0,1-.83-.1,3.64,3.64,0,0,1-.77-.29l.24-.75a2.3,2.3,0,0,0,.63.24,3,3,0,0,0,.72.09,1.4,1.4,0,0,0,1-.32,1.33,1.33,0,0,0,.32-1v-.6a1.66,1.66,0,0,1-.62.5,2,2,0,0,1-.83.17,1.86,1.86,0,0,1-1.53-.7,2.91,2.91,0,0,1-.55-1.85Zm1,.1a2.23,2.23,0,0,0,.33,1.28,1.17,1.17,0,0,0,1,.49,1.3,1.3,0,0,0,.73-.2,1.57,1.57,0,0,0,.48-.56v-2.43a1.48,1.48,0,0,0-.48-.54,1.29,1.29,0,0,0-.72-.19,1.12,1.12,0,0,0-1,.57,2.87,2.87,0,0,0-.34,1.48Z"/><path class="cls-7" d="M293.42,293.17a3.35,3.35,0,0,1-.24,1.28,2.84,2.84,0,0,1-.69,1l1.21,1.14-.66.63L291.69,296a2.69,2.69,0,0,1-.57.17,3,3,0,0,1-.6.06,2.63,2.63,0,0,1-2-.86,3.08,3.08,0,0,1-.78-2.16V291.9a3.1,3.1,0,0,1,.78-2.16,2.6,2.6,0,0,1,2-.87,2.73,2.73,0,0,1,2.09.87,3,3,0,0,1,.81,2.16Zm-1-1.28a2.41,2.41,0,0,0-.53-1.6,1.73,1.73,0,0,0-1.41-.62,1.64,1.64,0,0,0-1.35.62,2.51,2.51,0,0,0-.5,1.6v1.28a2.54,2.54,0,0,0,.5,1.61,1.67,1.67,0,0,0,1.35.62,1.73,1.73,0,0,0,1.41-.62,2.4,2.4,0,0,0,.53-1.61Z"/><path class="cls-7" d="M298,295.3a1.7,1.7,0,0,1-1.54.89,1.72,1.72,0,0,1-1.35-.55,2.58,2.58,0,0,1-.48-1.72V290.8h1v3.13a1.93,1.93,0,0,0,.25,1.16.91.91,0,0,0,.77.32,1.57,1.57,0,0,0,.85-.21,1.34,1.34,0,0,0,.51-.59V290.8h1v5.29h-.87Z"/><path class="cls-7" d="M302.55,296.19a2.22,2.22,0,0,1-1.75-.74,2.73,2.73,0,0,1-.66-1.9v-.22a2.67,2.67,0,0,1,.68-1.87,2,2,0,0,1,1.58-.75,2,2,0,0,1,1.62.64,2.54,2.54,0,0,1,.55,1.72v.6h-3.43v0a2,2,0,0,0,.38,1.25,1.23,1.23,0,0,0,1,.49,2.5,2.5,0,0,0,.86-.14,2,2,0,0,0,.64-.38l.37.63a2.28,2.28,0,0,1-.75.46A2.85,2.85,0,0,1,302.55,296.19Zm-.15-4.73a1,1,0,0,0-.82.41,1.88,1.88,0,0,0-.42,1v0h2.44v-.12a1.48,1.48,0,0,0-.31-1A1.09,1.09,0,0,0,302.4,291.46Z"/><path class="cls-7" d="M308.15,291.65l-.5,0a1.12,1.12,0,0,0-.64.18,1.15,1.15,0,0,0-.4.51v3.78h-1V290.8h.86l.09.77a1.92,1.92,0,0,1,.55-.64,1.33,1.33,0,0,1,.76-.22h.21l.16,0Z"/><path class="cls-7" d="M310.78,294.13l.17.66h0l1.3-4h1.07l-2.22,6.1a2.82,2.82,0,0,1-.58.92,1.3,1.3,0,0,1-1,.4l-.29,0-.28-.05.09-.76h.18l.25,0a.6.6,0,0,0,.51-.27,2.73,2.73,0,0,0,.32-.61l.23-.55-2-5.18h1.08Z"/><path class="cls-7" d="M314.44,296.09h-1v-1h1Z"/></g></g></g><g id="Group_259" data-name="Group 259"><g id="Graphic_160" data-name="Graphic 160"><path class="cls-8" d="M501.4,20H705V215.5H501.4Z"/><g class="cls-6"><path class="cls-7" d="M512.28,44V36.89h2.32a2.81,2.81,0,0,1,1.74.48,1.7,1.7,0,0,1,.63,1.44,1.32,1.32,0,0,1-.3.85,1.79,1.79,0,0,1-.8.56,1.66,1.66,0,0,1,1,.63,1.87,1.87,0,0,1,.36,1.14,1.81,1.81,0,0,1-.63,1.49,2.59,2.59,0,0,1-1.71.52Zm1-4.09h1.56a1.29,1.29,0,0,0,.87-.29,1.2,1.2,0,0,0,0-1.69,1.7,1.7,0,0,0-1-.28h-1.36Zm0,.76v2.57h1.67a1.49,1.49,0,0,0,1-.32,1.18,1.18,0,0,0,.36-.92,1.44,1.44,0,0,0-.3-1,1.18,1.18,0,0,0-.94-.36Z"/><path class="cls-7" d="M519.53,37.36h-1v-1h1Zm0,6.64h-1V38.72h1Z"/><path class="cls-7" d="M520.8,41.46a3.49,3.49,0,0,1,.56-2.06,1.78,1.78,0,0,1,1.53-.78,2,2,0,0,1,.89.2,1.77,1.77,0,0,1,.63.59l.12-.69h.77V44a2,2,0,0,1-.59,1.56,2.47,2.47,0,0,1-1.71.54,3.52,3.52,0,0,1-.82-.1,3.09,3.09,0,0,1-.78-.29l.24-.74a3.08,3.08,0,0,0,.63.23,3,3,0,0,0,.72.09,1.36,1.36,0,0,0,1-.32,1.28,1.28,0,0,0,.32-1v-.6a1.5,1.5,0,0,1-.62.5,2,2,0,0,1-2.35-.53,2.88,2.88,0,0,1-.56-1.84Zm1,.1a2.16,2.16,0,0,0,.34,1.28,1.16,1.16,0,0,0,1,.48,1.21,1.21,0,0,0,.73-.2,1.33,1.33,0,0,0,.48-.56V40.13a1.45,1.45,0,0,0-.48-.53,1.29,1.29,0,0,0-.72-.2,1.11,1.11,0,0,0-1,.58,2.92,2.92,0,0,0-.34,1.48Z"/><path class="cls-7" d="M532.25,41.08a3.35,3.35,0,0,1-.24,1.28,2.86,2.86,0,0,1-.68,1l1.2,1.13-.66.63-1.34-1.25a2.91,2.91,0,0,1-1.18.22,2.56,2.56,0,0,1-2-.86,3.08,3.08,0,0,1-.78-2.16V39.82a3.12,3.12,0,0,1,.78-2.17,2.59,2.59,0,0,1,2-.86,2.77,2.77,0,0,1,2.1.86,3,3,0,0,1,.8,2.17Zm-1-1.27a2.42,2.42,0,0,0-.52-1.61,1.8,1.8,0,0,0-1.42-.62,1.64,1.64,0,0,0-1.34.62,2.52,2.52,0,0,0-.5,1.61v1.27a2.52,2.52,0,0,0,.5,1.61,1.62,1.62,0,0,0,1.34.63,1.75,1.75,0,0,0,1.42-.63,2.4,2.4,0,0,0,.52-1.61Z"/><path class="cls-7" d="M536.86,43.22a1.74,1.74,0,0,1-.64.65,1.68,1.68,0,0,1-.9.23,1.71,1.71,0,0,1-1.35-.55,2.58,2.58,0,0,1-.48-1.72V38.72h1v3.12A2,2,0,0,0,534.7,43a.92.92,0,0,0,.78.32,1.54,1.54,0,0,0,.84-.21,1.21,1.21,0,0,0,.51-.58V38.72h1V44h-.86Z"/><path class="cls-7" d="M541.39,44.1a2.22,2.22,0,0,1-1.76-.73,2.8,2.8,0,0,1-.65-1.91v-.21a2.69,2.69,0,0,1,.67-1.88,2.08,2.08,0,0,1,1.59-.75,2,2,0,0,1,1.62.64A2.6,2.6,0,0,1,543.4,41v.6H540v0a2.09,2.09,0,0,0,.39,1.25,1.23,1.23,0,0,0,1,.49,2.44,2.44,0,0,0,.85-.14,2,2,0,0,0,.64-.39l.38.63a2.29,2.29,0,0,1-.75.47A3.09,3.09,0,0,1,541.39,44.1Zm-.15-4.72a1.05,1.05,0,0,0-.83.4,2,2,0,0,0-.42,1v0h2.44V40.7a1.45,1.45,0,0,0-.3-.94A1.06,1.06,0,0,0,541.24,39.38Z"/><path class="cls-7" d="M547,39.57l-.49,0a1.08,1.08,0,0,0-.64.18,1.16,1.16,0,0,0-.41.51V44h-1V38.72h.86l.09.77a1.77,1.77,0,0,1,.56-.64,1.31,1.31,0,0,1,.76-.23.65.65,0,0,1,.2,0l.16,0Z"/><path class="cls-7" d="M549.61,42l.17.67h0l1.3-4h1.07L550,44.81a2.84,2.84,0,0,1-.57.93,1.34,1.34,0,0,1-1,.39l-.3,0-.28,0,.1-.76h.43a.6.6,0,0,0,.5-.27,2.73,2.73,0,0,0,.33-.61l.23-.55-2-5.17h1.07Z"/><path class="cls-7" d="M556.65,40.92V44h-1V36.9h2.58a2.74,2.74,0,0,1,1.78.51,1.87,1.87,0,0,1,.61,1.51,1.61,1.61,0,0,1-.28.95,1.92,1.92,0,0,1-.84.64,1.48,1.48,0,0,1,.85.62,2.05,2.05,0,0,1,.25,1.06v.67a2.1,2.1,0,0,0,.08.59.88.88,0,0,0,.25.43V44h-1a.74.74,0,0,1-.24-.49,3.52,3.52,0,0,1-.06-.66V42.2a1.25,1.25,0,0,0-.34-.93,1.19,1.19,0,0,0-.9-.35Zm0-.76h1.52a1.76,1.76,0,0,0,1.17-.31,1.16,1.16,0,0,0,.36-.94,1.23,1.23,0,0,0-.35-.93,1.52,1.52,0,0,0-1.08-.33h-1.62Z"/><path class="cls-7" d="M564.33,44.1a2.24,2.24,0,0,1-1.76-.73,2.8,2.8,0,0,1-.65-1.91v-.21a2.74,2.74,0,0,1,.67-1.88,2.08,2.08,0,0,1,1.59-.75,2,2,0,0,1,1.62.64,2.61,2.61,0,0,1,.55,1.72v.6h-3.43l0,0a2.09,2.09,0,0,0,.39,1.25,1.25,1.25,0,0,0,1,.49,2.5,2.5,0,0,0,.86-.14,2,2,0,0,0,.63-.39l.38.63a2.29,2.29,0,0,1-.75.47A3.09,3.09,0,0,1,564.33,44.1Zm-.15-4.72a1,1,0,0,0-.82.4,1.88,1.88,0,0,0-.42,1v0h2.43V40.7a1.45,1.45,0,0,0-.3-.94A1.06,1.06,0,0,0,564.18,39.38Z"/><path class="cls-7" d="M567.21,41.46a3.56,3.56,0,0,1,.54-2.06,1.75,1.75,0,0,1,1.53-.78,2,2,0,0,1,.82.17,1.63,1.63,0,0,1,.61.5V36.38h1V44h-.78l-.11-.65a1.7,1.7,0,0,1-.64.56,1.86,1.86,0,0,1-.87.19,1.82,1.82,0,0,1-1.52-.7,2.94,2.94,0,0,1-.54-1.84Zm1,.1a2.23,2.23,0,0,0,.33,1.28,1.12,1.12,0,0,0,1,.48,1.25,1.25,0,0,0,.72-.19,1.43,1.43,0,0,0,.48-.55V40.11a1.5,1.5,0,0,0-.48-.52,1.26,1.26,0,0,0-.71-.19,1.1,1.1,0,0,0-1,.57,3,3,0,0,0-.33,1.49Z"/><path class="cls-7" d="M576.18,42.59a.66.66,0,0,0-.24-.52,2.37,2.37,0,0,0-.92-.36,3.63,3.63,0,0,1-1.44-.56,1.15,1.15,0,0,1-.49-1,1.38,1.38,0,0,1,.55-1.1,2.16,2.16,0,0,1,1.42-.45,2.18,2.18,0,0,1,1.47.47,1.41,1.41,0,0,1,.52,1.16v0h-.92a.82.82,0,0,0-.29-.62,1.08,1.08,0,0,0-.77-.27,1.11,1.11,0,0,0-.76.22.69.69,0,0,0-.25.54.61.61,0,0,0,.22.5,2.45,2.45,0,0,0,.9.32,3.85,3.85,0,0,1,1.48.58,1.18,1.18,0,0,1,.49,1,1.37,1.37,0,0,1-.57,1.14,2.36,2.36,0,0,1-1.48.43,2.3,2.3,0,0,1-1.59-.51,1.46,1.46,0,0,1-.56-1.2v0h.92a.9.9,0,0,0,.38.75,1.48,1.48,0,0,0,.84.24,1.33,1.33,0,0,0,.8-.21A.65.65,0,0,0,576.18,42.59Z"/><path class="cls-7" d="M579.3,39.42a2,2,0,0,1,.67-.59,1.87,1.87,0,0,1,.88-.21,1.7,1.7,0,0,1,1.32.51,2.26,2.26,0,0,1,.47,1.56V44h-1V40.68a1.46,1.46,0,0,0-.28-1,1.07,1.07,0,0,0-.84-.31,1.4,1.4,0,0,0-.73.19,1.52,1.52,0,0,0-.53.51V44h-1V36.38h1Z"/><path class="cls-7" d="M585.06,37.36h-1v-1h1Zm0,6.64h-1V38.72h1Z"/><path class="cls-7" d="M586.94,44V39.43h-.82v-.71h.82v-.67a1.84,1.84,0,0,1,.44-1.31,1.64,1.64,0,0,1,1.24-.46,1.84,1.84,0,0,1,.33,0l.38.07-.12.74-.21,0h-.27a.75.75,0,0,0-.62.25,1.11,1.11,0,0,0-.21.73v.67H589v.71h-1.1V44Z"/><path class="cls-7" d="M591.26,37.44v1.28h1v.71h-1v3.21a.69.69,0,0,0,.16.52.56.56,0,0,0,.41.15l.18,0,.18,0,.12.66a.81.81,0,0,1-.31.15,2,2,0,0,1-.42.05,1.26,1.26,0,0,1-.93-.35,1.55,1.55,0,0,1-.35-1.11V39.43h-.84v-.71h.84V37.44Z"/><path class="cls-7" d="M597.35,36.89l2.26,5.78h0l2.27-5.78h1.23V44h-1V41.19l.09-2.89h0L600,44h-.64L597,38.31h0l.09,2.88V44h-1V36.89Z"/><path class="cls-7" d="M605.76,37.36h-1v-1h1Zm0,6.64h-1V38.72h1Z"/><path class="cls-7" d="M607,41.46a3.49,3.49,0,0,1,.56-2.06,1.78,1.78,0,0,1,1.53-.78,2,2,0,0,1,.89.2,1.77,1.77,0,0,1,.63.59l.12-.69h.77V44a2,2,0,0,1-.59,1.56,2.47,2.47,0,0,1-1.71.54,3.52,3.52,0,0,1-.82-.1,3.41,3.41,0,0,1-.78-.29l.25-.74a2.78,2.78,0,0,0,.62.23,3,3,0,0,0,.72.09,1.4,1.4,0,0,0,1-.32,1.32,1.32,0,0,0,.32-1v-.6a1.64,1.64,0,0,1-.62.5,1.87,1.87,0,0,1-.83.17,1.84,1.84,0,0,1-1.53-.7,2.88,2.88,0,0,1-.56-1.84Zm1,.1a2.16,2.16,0,0,0,.34,1.28,1.16,1.16,0,0,0,1,.48,1.21,1.21,0,0,0,.73-.2,1.42,1.42,0,0,0,.49-.56V40.13a1.56,1.56,0,0,0-.49-.53,1.29,1.29,0,0,0-.72-.2,1.12,1.12,0,0,0-1,.58,2.92,2.92,0,0,0-.34,1.48Z"/><path class="cls-7" d="M615.42,39.57l-.49,0a1.1,1.1,0,0,0-.64.18,1.08,1.08,0,0,0-.4.51V44h-1V38.72h.86l.1.77a1.74,1.74,0,0,1,.55-.64,1.31,1.31,0,0,1,.76-.23.65.65,0,0,1,.2,0l.17,0Z"/><path class="cls-7" d="M619.6,44c0-.16-.06-.3-.08-.42a2.31,2.31,0,0,1,0-.37,2.27,2.27,0,0,1-.7.64,1.8,1.8,0,0,1-.93.25,1.74,1.74,0,0,1-1.26-.42,1.54,1.54,0,0,1-.43-1.16,1.39,1.39,0,0,1,.61-1.19,2.93,2.93,0,0,1,1.67-.43h1v-.52a1,1,0,0,0-.28-.73,1.12,1.12,0,0,0-.8-.27,1.23,1.23,0,0,0-.76.23.73.73,0,0,0-.29.57h-.92v0a1.32,1.32,0,0,1,.55-1,2.23,2.23,0,0,1,1.48-.48,2.17,2.17,0,0,1,1.45.46,1.61,1.61,0,0,1,.54,1.31v2.55a4.75,4.75,0,0,0,0,.54,3,3,0,0,0,.11.52Zm-1.6-.71a1.69,1.69,0,0,0,.94-.27,1.22,1.22,0,0,0,.55-.61v-.86h-1.08a1.37,1.37,0,0,0-.93.3.87.87,0,0,0-.35.68.75.75,0,0,0,.22.56A1,1,0,0,0,618,43.29Z"/><path class="cls-7" d="M623.12,37.44v1.28h1v.71h-1v3.21a.73.73,0,0,0,.15.52.58.58,0,0,0,.41.15l.18,0,.18,0,.13.66a.87.87,0,0,1-.32.15,1.84,1.84,0,0,1-.41.05,1.28,1.28,0,0,1-.94-.35,1.55,1.55,0,0,1-.34-1.11V39.43h-.84v-.71h.84V37.44Z"/><path class="cls-7" d="M626.35,37.36h-1v-1h1Zm0,6.64h-1V38.72h1Z"/><path class="cls-7" d="M627.6,41.31a2.86,2.86,0,0,1,.64-1.93,2.1,2.1,0,0,1,1.72-.76,2.15,2.15,0,0,1,1.74.76,2.91,2.91,0,0,1,.63,1.93v.11a2.89,2.89,0,0,1-.63,1.93,2.37,2.37,0,0,1-3.46,0,2.86,2.86,0,0,1-.64-1.93Zm1,.1a2.47,2.47,0,0,0,.36,1.39,1.27,1.27,0,0,0,2.09,0,2.47,2.47,0,0,0,.36-1.39v-.1a2.44,2.44,0,0,0-.36-1.38,1.17,1.17,0,0,0-1-.55,1.14,1.14,0,0,0-1,.55,2.44,2.44,0,0,0-.36,1.38Z"/><path class="cls-7" d="M634.37,38.72l.07.78a1.87,1.87,0,0,1,.66-.65,1.8,1.8,0,0,1,.9-.23,1.75,1.75,0,0,1,1.33.5,2.21,2.21,0,0,1,.47,1.55V44h-1V40.68a1.47,1.47,0,0,0-.27-1,1.12,1.12,0,0,0-.84-.29,1.41,1.41,0,0,0-.74.2,1.5,1.5,0,0,0-.51.55V44h-1V38.72Z"/><path class="cls-7" d="M645.73,42.21a1.06,1.06,0,0,0-.36-.81,3,3,0,0,0-1.3-.55,4.24,4.24,0,0,1-1.76-.8,1.62,1.62,0,0,1-.64-1.31,1.73,1.73,0,0,1,.68-1.39,2.68,2.68,0,0,1,1.77-.56,2.61,2.61,0,0,1,1.86.64,1.86,1.86,0,0,1,.66,1.48v0h-.91a1.31,1.31,0,0,0-.42-1,1.65,1.65,0,0,0-1.18-.39,1.62,1.62,0,0,0-1.1.33,1,1,0,0,0-.38.85.92.92,0,0,0,.41.77,4,4,0,0,0,1.35.55,3.7,3.7,0,0,1,1.71.82,1.74,1.74,0,0,1,.58,1.34,1.64,1.64,0,0,1-.7,1.38,3,3,0,0,1-1.84.52,3.15,3.15,0,0,1-1.88-.58,1.73,1.73,0,0,1-.79-1.54v0h.92a1.18,1.18,0,0,0,.5,1,2.07,2.07,0,0,0,1.24.36,2,2,0,0,0,1.16-.31A1,1,0,0,0,645.73,42.21Z"/><path class="cls-7" d="M650.11,44.1a2.24,2.24,0,0,1-1.76-.73,2.8,2.8,0,0,1-.65-1.91v-.21a2.69,2.69,0,0,1,.67-1.88,2.08,2.08,0,0,1,1.59-.75,2,2,0,0,1,1.62.64,2.6,2.6,0,0,1,.54,1.72v.6H648.7l0,0a2.09,2.09,0,0,0,.39,1.25,1.23,1.23,0,0,0,1,.49,2.44,2.44,0,0,0,.85-.14,2,2,0,0,0,.64-.39l.38.63a2.29,2.29,0,0,1-.75.47A3.09,3.09,0,0,1,650.11,44.1ZM650,39.38a1.05,1.05,0,0,0-.83.4,2,2,0,0,0-.42,1v0h2.44V40.7a1.45,1.45,0,0,0-.3-.94A1.06,1.06,0,0,0,650,39.38Z"/><path class="cls-7" d="M655.7,39.57l-.49,0a1.1,1.1,0,0,0-.64.18,1.16,1.16,0,0,0-.41.51V44h-1V38.72h.86l.09.77a1.77,1.77,0,0,1,.56-.64,1.31,1.31,0,0,1,.76-.23.65.65,0,0,1,.2,0l.16,0Z"/><path class="cls-7" d="M658.48,42.44l.08.37h0l.1-.37,1.21-3.72h1L658.94,44h-.73l-2-5.28h1Z"/><path class="cls-7" d="M662.79,37.36h-1v-1h1Zm0,6.64h-1V38.72h1Z"/><path class="cls-7" d="M666.42,43.35a1.31,1.31,0,0,0,.84-.3.91.91,0,0,0,.36-.72h.87v0a1.51,1.51,0,0,1-.61,1.22,2.25,2.25,0,0,1-1.47.53,2.16,2.16,0,0,1-1.77-.75,2.94,2.94,0,0,1-.61-1.89v-.2a3,3,0,0,1,.61-1.89,2.16,2.16,0,0,1,1.77-.75,2.11,2.11,0,0,1,1.51.55,1.71,1.71,0,0,1,.57,1.34v0h-.87a1.13,1.13,0,0,0-.34-.83,1.2,1.2,0,0,0-.86-.33,1.17,1.17,0,0,0-1.09.54,2.62,2.62,0,0,0-.32,1.33v.21a2.64,2.64,0,0,0,.32,1.35A1.17,1.17,0,0,0,666.42,43.35Z"/><path class="cls-7" d="M671.77,44.1a2.24,2.24,0,0,1-1.76-.73,2.8,2.8,0,0,1-.65-1.91v-.21a2.69,2.69,0,0,1,.67-1.88,2.08,2.08,0,0,1,1.59-.75,2,2,0,0,1,1.62.64,2.6,2.6,0,0,1,.54,1.72v.6h-3.42l0,0a2.09,2.09,0,0,0,.39,1.25,1.23,1.23,0,0,0,1,.49,2.44,2.44,0,0,0,.85-.14,2,2,0,0,0,.64-.39l.38.63a2.29,2.29,0,0,1-.75.47A3.09,3.09,0,0,1,671.77,44.1Zm-.15-4.72a1.05,1.05,0,0,0-.83.4,2,2,0,0,0-.41,1v0h2.44V40.7a1.45,1.45,0,0,0-.3-.94A1.06,1.06,0,0,0,671.62,39.38Z"/></g></g><g id="Group_225" data-name="Group 225"><g id="Graphic_243" data-name="Graphic 243"><rect class="cls-9" x="521.2" y="63.6" width="164" height="131.9"/></g><g id="Group_231" data-name="Group 231"><g id="Graphic_242" data-name="Graphic 242"><path class="cls-7" d="M615.8,89.1a5.55,5.55,0,0,1,5.6-5.7,5.37,5.37,0,0,1,4,1.8l-1,.9a3.89,3.89,0,0,0-3-1.4,4.3,4.3,0,0,0,0,8.6,4.08,4.08,0,0,0,3.3-1.6l1,1a5.78,5.78,0,0,1-4.3,1.9,5.39,5.39,0,0,1-5.6-5.5"/></g><g id="Graphic_241" data-name="Graphic 241"><rect class="cls-7" x="626.9" y="83.6" width="1.4" height="10.9"/></g><g id="Graphic_240" data-name="Graphic 240"><path class="cls-7" d="M635.6,90.8a2.42,2.42,0,1,0-2.4,2.7,2.51,2.51,0,0,0,2.4-2.7m1.4,0a3.81,3.81,0,1,1-3.8-4,3.79,3.79,0,0,1,3.8,4"/></g><g id="Graphic_239" data-name="Graphic 239"><path class="cls-7" d="M643.3,94.5v-1h-.1a2.78,2.78,0,0,1-2.4,1.3c-1.9,0-2.8-1.3-2.8-3.1V87.2h1.4v4.3c0,1.5.8,2.1,1.8,2.1a2.21,2.21,0,0,0,2-2.3V87.2h1.4v7.4h-1.3Z"/></g><g id="Graphic_238" data-name="Graphic 238"><path class="cls-7" d="M651.9,90.8a2.45,2.45,0,0,0-2.4-2.7,2.51,2.51,0,0,0-2.4,2.7,2.45,2.45,0,0,0,2.4,2.7,2.51,2.51,0,0,0,2.4-2.7m-6.2,0a3.81,3.81,0,0,1,3.5-4,2.83,2.83,0,0,1,2.5,1.3h.1l-.1-1V83.7h1.4V94.6h-1.3v-1h-.1a2.83,2.83,0,0,1-2.5,1.3,4,4,0,0,1-3.5-4.1"/></g><g id="Graphic_237" data-name="Graphic 237"><path class="cls-7" d="M563.3,88.5a6.32,6.32,0,0,1,6.3-6.2,6,6,0,0,1,4.3,1.7l-1.2,1.2a4.21,4.21,0,0,0-3.1-1.2,4.5,4.5,0,1,0,3.1,7.8,3.4,3.4,0,0,0,.9-2.1h-4.1V88h5.7a3.75,3.75,0,0,1,.1,1.1,5.31,5.31,0,0,1-1.5,4,5.8,5.8,0,0,1-4.3,1.7,6.39,6.39,0,0,1-6.2-6.3"/></g><g id="Graphic_236" data-name="Graphic 236"><path class="cls-7" d="M580,93.2a2.35,2.35,0,0,1-2.3-2.4,2.29,2.29,0,0,1,2.3-2.4,2.4,2.4,0,0,1,0,4.8m0-6.5a4,4,0,1,0,4,4,3.95,3.95,0,0,0-4-4"/></g><g id="Graphic_235" data-name="Graphic 235"><path class="cls-7" d="M588.8,93.2a2.35,2.35,0,0,1-2.3-2.4,2.29,2.29,0,0,1,2.3-2.4,2.35,2.35,0,0,1,2.3,2.4,2.42,2.42,0,0,1-2.3,2.4m0-6.5a4,4,0,1,0,4,4,3.95,3.95,0,0,0-4-4"/></g><g id="Graphic_234" data-name="Graphic 234"><path class="cls-7" d="M597.5,93.2a2.41,2.41,0,0,1,0-4.8,2.19,2.19,0,0,1,2.1,2.4A2.25,2.25,0,0,1,597.5,93.2Zm2-6.2v.7h-.1a2.76,2.76,0,0,0-2.1-.9,4,4,0,0,0,0,8,2.6,2.6,0,0,0,2.1-.9h.1v.6c0,1.5-.8,2.4-2.1,2.4a2.25,2.25,0,0,1-2-1.4l-1.5.6a3.72,3.72,0,0,0,3.5,2.4c2.1,0,3.8-1.2,3.8-4.2V87Z"/></g><g id="Graphic_233" data-name="Graphic 233"><rect class="cls-7" x="602.4" y="82.7" width="1.8" height="11.8"/></g><g id="Graphic_232" data-name="Graphic 232"><path class="cls-7" d="M608.9,88.3a1.54,1.54,0,0,1,1.5.8l-3.6,1.5a2.16,2.16,0,0,1,2.1-2.3m.1,4.9a2,2,0,0,1-1.9-1.2l5.4-2.2-.2-.5a3.58,3.58,0,0,0-3.4-2.5,3.79,3.79,0,0,0-3.8,4,4,4,0,0,0,4,4,3.8,3.8,0,0,0,3.3-1.8l-1.4-.9a2.55,2.55,0,0,1-2,1.1"/></g></g><g id="Group_226" data-name="Group 226"><g id="Graphic_230" data-name="Graphic 230"><path class="cls-10" d="M549.7,85.2h.7l1.8-1.8.1-.8a8.35,8.35,0,0,0-5.5-2.1,8.16,8.16,0,0,0-7.9,6.1,1.15,1.15,0,0,1,.6,0l3.7-.6s.2-.3.3-.3a4.51,4.51,0,0,1,3.4-1.5A4.78,4.78,0,0,1,549.7,85.2Z"/></g><g id="Graphic_229" data-name="Graphic 229"><path class="cls-11" d="M554.7,86.6a8,8,0,0,0-2.5-4l-2.6,2.6a4.61,4.61,0,0,1,1.7,3.6v.5a2.3,2.3,0,1,1,0,4.6h-4.6l-.5.5V97l.5.5h4.6a5.91,5.91,0,0,0,5.9-5.9A5.66,5.66,0,0,0,554.7,86.6Z"/></g><g id="Graphic_228" data-name="Graphic 228"><path class="cls-12" d="M542.2,97.4h4.6V93.7h-4.6a2.39,2.39,0,0,1-.9-.2l-.7.2-1.8,1.8-.2.6A5.33,5.33,0,0,0,542.2,97.4Z"/></g><g id="Graphic_227" data-name="Graphic 227"><path class="cls-13" d="M542.2,85.6a5.91,5.91,0,0,0-5.9,5.9,5.78,5.78,0,0,0,2.4,4.7l2.6-2.6a2.33,2.33,0,0,1-1.3-2.1,2.26,2.26,0,0,1,2.3-2.3,2.53,2.53,0,0,1,2.1,1.3l2.6-2.6A6.17,6.17,0,0,0,542.2,85.6Z"/></g></g></g><g id="Graphic_154" data-name="Graphic 154"><rect class="cls-9" x="30" y="63.6" width="451.4" height="131.9"/><g class="cls-6"><path class="cls-7" d="M44.73,85.74h-3l-.67,1.83h-1l2.75-7.11h.82l2.71,7.11h-1Zm-2.68-.81h2.39L43.27,81.7h0Z"/><path class="cls-7" d="M48,82.29l.07.69a1.68,1.68,0,0,1,.66-.58,1.92,1.92,0,0,1,.92-.21,1.67,1.67,0,0,1,.91.24,1.54,1.54,0,0,1,.57.74,1.91,1.91,0,0,1,.66-.72,1.76,1.76,0,0,1,1-.26,1.58,1.58,0,0,1,1.28.55,2.56,2.56,0,0,1,.47,1.67v3.16h-1V84.4a1.78,1.78,0,0,0-.26-1.11,1.13,1.13,0,0,0-1.6,0,1.43,1.43,0,0,0-.36.87v3.39h-1V84.4a1.78,1.78,0,0,0-.27-1.09,1,1,0,0,0-.8-.34,1.33,1.33,0,0,0-.72.18,1.22,1.22,0,0,0-.44.51v3.91h-1V82.29Z"/><path class="cls-7" d="M59.16,87.57c0-.16-.06-.3-.08-.42l0-.37a2.27,2.27,0,0,1-.7.64,1.8,1.8,0,0,1-.93.25,1.74,1.74,0,0,1-1.26-.42,1.59,1.59,0,0,1-.43-1.17,1.37,1.37,0,0,1,.62-1.18A2.87,2.87,0,0,1,58,84.47h1V84a1,1,0,0,0-.28-.73A1.12,1.12,0,0,0,58,83a1.17,1.17,0,0,0-.76.23.73.73,0,0,0-.29.57H56v0a1.28,1.28,0,0,1,.54-1A2.23,2.23,0,0,1,58,82.19a2.17,2.17,0,0,1,1.45.46A1.61,1.61,0,0,1,60,84V86.5a4.8,4.8,0,0,0,0,.55,3,3,0,0,0,.11.52Zm-1.6-.71a1.73,1.73,0,0,0,.95-.27,1.2,1.2,0,0,0,.54-.61v-.86H58a1.4,1.4,0,0,0-.93.3.87.87,0,0,0-.35.68.75.75,0,0,0,.22.56A1,1,0,0,0,57.56,86.86Z"/><path class="cls-7" d="M62.32,86.81h3.05v.76h-4.2v-.68L64,83H61.21v-.75h4v.65Z"/><path class="cls-7" d="M66.14,84.88A2.91,2.91,0,0,1,66.77,83a2.35,2.35,0,0,1,3.46,0,2.85,2.85,0,0,1,.64,1.93V85a2.86,2.86,0,0,1-.64,1.93,2.14,2.14,0,0,1-1.72.75,2.18,2.18,0,0,1-1.74-.75A2.91,2.91,0,0,1,66.14,85Zm1,.1a2.58,2.58,0,0,0,.35,1.39,1.28,1.28,0,0,0,2.1,0A2.5,2.5,0,0,0,69.91,85v-.1a2.44,2.44,0,0,0-.36-1.38,1.28,1.28,0,0,0-2.1,0,2.52,2.52,0,0,0-.35,1.38Z"/><path class="cls-7" d="M72.91,82.29l.06.78a2,2,0,0,1,.67-.65,1.77,1.77,0,0,1,.9-.23,1.73,1.73,0,0,1,1.32.5,2.15,2.15,0,0,1,.47,1.54v3.34h-1V84.25a1.47,1.47,0,0,0-.27-1,1.15,1.15,0,0,0-.85-.29,1.38,1.38,0,0,0-.73.2,1.35,1.35,0,0,0-.51.55v3.85h-1V82.29Z"/><path class="cls-7" d="M85.42,85.29v0a2.17,2.17,0,0,1-.7,1.68,2.7,2.7,0,0,1-1.91.67,2.51,2.51,0,0,1-2-.85,3.17,3.17,0,0,1-.76-2.17V83.38a3.21,3.21,0,0,1,.76-2.17,2.51,2.51,0,0,1,2-.85,2.77,2.77,0,0,1,1.92.64,2.15,2.15,0,0,1,.69,1.7v0H84.5a1.59,1.59,0,0,0-.44-1.18,1.71,1.71,0,0,0-1.24-.44,1.53,1.53,0,0,0-1.29.65,2.65,2.65,0,0,0-.48,1.61v1.28a2.68,2.68,0,0,0,.48,1.62,1.53,1.53,0,0,0,1.29.65,1.71,1.71,0,0,0,1.24-.44,1.6,1.6,0,0,0,.44-1.19Z"/><path class="cls-7" d="M87.59,87.57h-1V80h1Z"/><path class="cls-7" d="M88.84,84.88A2.86,2.86,0,0,1,89.48,83a2.11,2.11,0,0,1,1.72-.76,2.15,2.15,0,0,1,1.74.76,2.89,2.89,0,0,1,.63,1.93V85a2.91,2.91,0,0,1-.63,1.93,2.37,2.37,0,0,1-3.46,0A2.92,2.92,0,0,1,88.84,85Zm1,.1a2.5,2.5,0,0,0,.36,1.39,1.28,1.28,0,0,0,2.1,0A2.58,2.58,0,0,0,92.61,85v-.1a2.44,2.44,0,0,0-.36-1.38,1.17,1.17,0,0,0-1-.55,1.14,1.14,0,0,0-1,.55,2.44,2.44,0,0,0-.36,1.38Z"/><path class="cls-7" d="M98.11,86.79a1.81,1.81,0,0,1-.64.65,1.93,1.93,0,0,1-2.26-.32,2.58,2.58,0,0,1-.48-1.72V82.29h1v3.12a2,2,0,0,0,.25,1.16.92.92,0,0,0,.78.32,1.6,1.6,0,0,0,.85-.21,1.26,1.26,0,0,0,.5-.59v-3.8h1v5.28h-.86Z"/><path class="cls-7" d="M100.21,85a3.56,3.56,0,0,1,.55-2.06,1.75,1.75,0,0,1,1.53-.78,2,2,0,0,1,.82.17,1.63,1.63,0,0,1,.61.5V80h1v7.62h-.78l-.12-.65a1.68,1.68,0,0,1-.63.56,1.86,1.86,0,0,1-.87.19,1.82,1.82,0,0,1-1.52-.7,2.94,2.94,0,0,1-.55-1.84Zm1,.1a2.31,2.31,0,0,0,.32,1.28,1.15,1.15,0,0,0,1,.48,1.25,1.25,0,0,0,.72-.19,1.43,1.43,0,0,0,.48-.55V83.68a1.42,1.42,0,0,0-.48-.52,1.26,1.26,0,0,0-.71-.19,1.1,1.1,0,0,0-1,.57,3,3,0,0,0-.33,1.49Z"/></g></g><g id="Group_161" data-name="Group 161"><g id="Graphic_168" data-name="Graphic 168"><rect class="cls-2" x="541.2" y="119" width="124" height="56"/><g class="cls-14"><rect class="cls-4" x="541.2" y="119" width="124" height="56"/></g><g class="cls-6"><path class="cls-15" d="M593.25,150.5V142H596a3.33,3.33,0,0,1,2.09.58,2,2,0,0,1,.76,1.73,1.55,1.55,0,0,1-.37,1,2.19,2.19,0,0,1-.95.67,2,2,0,0,1,1.21.75,2.24,2.24,0,0,1,.45,1.38,2.19,2.19,0,0,1-.76,1.79,3.2,3.2,0,0,1-2.06.62Zm1.16-4.9h1.87a1.52,1.52,0,0,0,1.05-.36,1.24,1.24,0,0,0,.4-1,1.21,1.21,0,0,0-.44-1,2,2,0,0,0-1.25-.34h-1.63Zm0,.9v3.09h2a1.77,1.77,0,0,0,1.22-.39,1.38,1.38,0,0,0,.44-1.1,1.76,1.76,0,0,0-.36-1.17,1.45,1.45,0,0,0-1.13-.43Z"/><path class="cls-15" d="M602,142.54H600.8v-1.18H602Zm0,8H600.8v-6.34H602Z"/><path class="cls-15" d="M603.48,147.45a4.15,4.15,0,0,1,.67-2.47A2.15,2.15,0,0,1,606,144a2.1,2.1,0,0,1,1.06.25,2.06,2.06,0,0,1,.77.7l.14-.83h.92v6.38a2.43,2.43,0,0,1-.71,1.87,3,3,0,0,1-2,.65,4.09,4.09,0,0,1-1-.13,3.52,3.52,0,0,1-.93-.34l.29-.89a3.27,3.27,0,0,0,.75.28,3.84,3.84,0,0,0,.87.11,1.68,1.68,0,0,0,1.23-.39,1.59,1.59,0,0,0,.38-1.16v-.72a1.93,1.93,0,0,1-.74.6,2.26,2.26,0,0,1-1,.2,2.2,2.2,0,0,1-1.83-.84,3.43,3.43,0,0,1-.67-2.21Zm1.15.12a2.65,2.65,0,0,0,.41,1.54,1.41,1.41,0,0,0,1.23.58,1.49,1.49,0,0,0,.87-.24,1.74,1.74,0,0,0,.58-.67v-2.92a1.79,1.79,0,0,0-.58-.64,1.5,1.5,0,0,0-.86-.24,1.36,1.36,0,0,0-1.24.69,3.47,3.47,0,0,0-.41,1.78Z"/><path class="cls-15" d="M617.23,147a4,4,0,0,1-.3,1.54,3.37,3.37,0,0,1-.82,1.2l1.45,1.36-.79.76-1.62-1.51a3.83,3.83,0,0,1-.68.21,4.4,4.4,0,0,1-.73.06,3.11,3.11,0,0,1-2.43-1,3.72,3.72,0,0,1-.93-2.59v-1.52a3.75,3.75,0,0,1,.93-2.6,3.11,3.11,0,0,1,2.43-1,3.3,3.3,0,0,1,2.52,1,3.69,3.69,0,0,1,1,2.6Zm-1.16-1.53a2.91,2.91,0,0,0-.63-1.93,2.11,2.11,0,0,0-1.7-.75,2,2,0,0,0-1.61.75,3,3,0,0,0-.6,1.93V147a3,3,0,0,0,.6,1.93,2,2,0,0,0,1.61.75,2.11,2.11,0,0,0,1.7-.75,2.89,2.89,0,0,0,.63-1.93Z"/><path class="cls-15" d="M622.76,149.56a2.24,2.24,0,0,1-.77.79,2.11,2.11,0,0,1-1.08.27,2,2,0,0,1-1.62-.66,3.05,3.05,0,0,1-.58-2.06v-3.74h1.15v3.75a2.32,2.32,0,0,0,.3,1.39,1.1,1.1,0,0,0,.93.39,2,2,0,0,0,1-.25,1.57,1.57,0,0,0,.61-.71v-4.57h1.15v6.34h-1Z"/><path class="cls-15" d="M628.18,150.62a2.65,2.65,0,0,1-2.1-.88,3.29,3.29,0,0,1-.79-2.29v-.25a3.25,3.25,0,0,1,.81-2.26A2.48,2.48,0,0,1,628,144a2.4,2.4,0,0,1,1.94.78,3.1,3.1,0,0,1,.65,2.06v.72h-4.11l0,0a2.52,2.52,0,0,0,.46,1.5,1.49,1.49,0,0,0,1.25.58,2.93,2.93,0,0,0,1-.16,2.46,2.46,0,0,0,.77-.46l.45.75a2.82,2.82,0,0,1-.9.56A3.6,3.6,0,0,1,628.18,150.62ZM628,145a1.23,1.23,0,0,0-1,.49,2.29,2.29,0,0,0-.51,1.22v0h2.93v-.15a1.71,1.71,0,0,0-.37-1.13A1.27,1.27,0,0,0,628,145Z"/><path class="cls-15" d="M634.9,145.18l-.59,0a1.32,1.32,0,0,0-.77.22,1.49,1.49,0,0,0-.49.61v4.53H631.9v-6.34h1l.11.93a2.12,2.12,0,0,1,.67-.77,1.49,1.49,0,0,1,.91-.28l.24,0,.2.05Z"/><path class="cls-15" d="M638.06,148.15l.2.8h0l1.55-4.79h1.29l-2.67,7.31a3.29,3.29,0,0,1-.69,1.12,1.6,1.6,0,0,1-1.21.47l-.35,0-.34-.06.12-.91h.21l.3,0a.72.72,0,0,0,.61-.33,3.39,3.39,0,0,0,.39-.73l.28-.66-2.36-6.21h1.29Z"/></g></g><g id="Group_162" data-name="Group 162"><g id="Graphic_167" data-name="Graphic 167"><path class="cls-16" d="M563.5,144.8v3.6a5.66,5.66,0,0,0,2.3,2.3v-5.9Z"/></g><g id="Graphic_166" data-name="Graphic 166"><path class="cls-17" d="M567.7,141.5v10a7.57,7.57,0,0,0,1.5.1,5.7,5.7,0,0,0,1.3-.1v-10Z"/></g><g id="Graphic_165" data-name="Graphic 165"><path class="cls-16" d="M572.7,146.1v4.4a7.56,7.56,0,0,0,2.3-2.4v-2Z"/></g><g id="Graphic_164" data-name="Graphic 164"><path class="cls-11" d="M578.2,152.1l-1.9,1.9a.61.61,0,0,0,0,.8l4.7,4.7a.61.61,0,0,0,.8,0l1.9-1.9a.61.61,0,0,0,0-.8l-4.7-4.7a.61.61,0,0,0-.8,0"/></g><g id="Graphic_163" data-name="Graphic 163"><path class="cls-17" d="M569.2,133a12,12,0,1,0,12,12,12,12,0,0,0-12-12m0,20.9a8.9,8.9,0,1,1,8.9-8.9,8.88,8.88,0,0,1-8.9,8.9"/></g></g></g><g id="Graphic_256" data-name="Graphic 256"><path class="cls-18" d="M462,147.8l69.3-.2a.5.5,0,0,0,0-1l-69.3.2a.5.5,0,0,0,0,1Zm77.3-1.1h-8v1h8Zm-4.4-3.2,4,4v-.7l-4,4,.7.7,4-4,.4-.4-.4-.4-4-4Z"/></g><g id="Graphic_257" data-name="Graphic 257"><path class="cls-18" d="M318.1,148h10a.5.5,0,0,0,0-1h-10a.5.5,0,0,0,0,1Zm18-1h-8v1h8Zm-4.4-3.1,4,4v-.7l-4,4,.7.7,4-4,.4-.4-.4-.4-4-4Z"/></g><g id="Graphic_258" data-name="Graphic 258"><path class="cls-18" d="M174.1,148h10.1a.5.5,0,0,0,0-1H174.1a.5.5,0,0,0,0,1Zm18.1-1h-8v1h8Zm-4.4-3.1,4,4v-.7l-4,4,.7.7,4-4,.4-.4-.4-.4-4-4Z"/></g><g id="Graphic_155" data-name="Graphic 155"><rect class="cls-2" x="194.1" y="119.5" width="124" height="56"/><g class="cls-19"><rect class="cls-4" x="194.1" y="119.5" width="124" height="56"/></g><g class="cls-6"><path class="cls-15" d="M232.12,136v5.78a2.57,2.57,0,0,1-.91,2.13,3.57,3.57,0,0,1-2.36.74,3.36,3.36,0,0,1-2.28-.74,2.61,2.61,0,0,1-.88-2.13V136h1.15v5.78a1.86,1.86,0,0,0,.56,1.46,2,2,0,0,0,1.45.5,2.24,2.24,0,0,0,1.53-.5,1.81,1.81,0,0,0,.58-1.46V136Z"/><path class="cls-15" d="M234.82,138.16l.08.94a2.45,2.45,0,0,1,.79-.78,2.21,2.21,0,0,1,1.09-.28,2.07,2.07,0,0,1,1.59.6,2.67,2.67,0,0,1,.56,1.86v4h-1.15v-4a1.73,1.73,0,0,0-.33-1.19,1.34,1.34,0,0,0-1-.35,1.65,1.65,0,0,0-.89.24,1.77,1.77,0,0,0-.61.66v4.62h-1.15v-6.34Z"/><path class="cls-15" d="M241.86,144.5H240.7v-9.14h1.16Z"/><path class="cls-15" d="M243.36,141.27a3.54,3.54,0,0,1,.76-2.32,2.82,2.82,0,0,1,4.15,0,3.49,3.49,0,0,1,.77,2.32v.13a3.45,3.45,0,0,1-.76,2.32,2.84,2.84,0,0,1-4.15,0,3.49,3.49,0,0,1-.77-2.32Zm1.16.13a3,3,0,0,0,.42,1.66,1.55,1.55,0,0,0,2.52,0,3,3,0,0,0,.43-1.66v-.13a3,3,0,0,0-.44-1.66,1.52,1.52,0,0,0-2.51,0,3.05,3.05,0,0,0-.42,1.66Z"/><path class="cls-15" d="M254.35,144.5q-.06-.28-.09-.51a3.13,3.13,0,0,1,0-.44,2.82,2.82,0,0,1-.84.77,2.21,2.21,0,0,1-1.12.3,2.12,2.12,0,0,1-1.51-.5,1.9,1.9,0,0,1-.52-1.4,1.63,1.63,0,0,1,.74-1.42,3.46,3.46,0,0,1,2-.51h1.25v-.63a1.14,1.14,0,0,0-.34-.88,1.33,1.33,0,0,0-1-.33,1.42,1.42,0,0,0-.91.29.84.84,0,0,0-.35.68h-1.1v0a1.55,1.55,0,0,1,.65-1.26,3,3,0,0,1,3.52,0,2,2,0,0,1,.65,1.58v3.05c0,.23,0,.45,0,.66a3.25,3.25,0,0,0,.13.62Zm-1.92-.85a2.07,2.07,0,0,0,1.13-.32,1.49,1.49,0,0,0,.66-.74v-1h-1.3a1.65,1.65,0,0,0-1.11.36,1,1,0,0,0-.42.82.9.9,0,0,0,.26.67A1.14,1.14,0,0,0,252.43,143.65Z"/><path class="cls-15" d="M256.79,141.45a4.22,4.22,0,0,1,.65-2.47,2.1,2.1,0,0,1,1.83-.94,2.25,2.25,0,0,1,1,.21,1.9,1.9,0,0,1,.73.6v-3.49h1.16v9.14h-.95l-.13-.78a2,2,0,0,1-.76.67,2.43,2.43,0,0,1-2.87-.61,3.48,3.48,0,0,1-.65-2.21Zm1.15.12a2.72,2.72,0,0,0,.39,1.54,1.38,1.38,0,0,0,1.22.58,1.51,1.51,0,0,0,.87-.24,1.77,1.77,0,0,0,.57-.66v-2.95a1.83,1.83,0,0,0-.57-.63,1.58,1.58,0,0,0-.86-.23,1.31,1.31,0,0,0-1.22.69,3.45,3.45,0,0,0-.4,1.78Z"/><path class="cls-15" d="M267.33,144.5V139h-1v-.86h1v-.8a2.19,2.19,0,0,1,.53-1.57,2,2,0,0,1,1.48-.55,2.6,2.6,0,0,1,.4,0l.45.09-.14.88-.25,0-.32,0a.93.93,0,0,0-.75.3,1.38,1.38,0,0,0-.24.88v.8h1.32V139h-1.32v5.48Z"/><path class="cls-15" d="M272.24,136.54h-1.15v-1.18h1.15Zm0,8h-1.15v-6.34h1.15Z"/><path class="cls-15" d="M275.27,144.5h-1.16v-9.14h1.16Z"/><path class="cls-15" d="M279.67,144.62a2.65,2.65,0,0,1-2.1-.88,3.29,3.29,0,0,1-.79-2.29v-.25a3.25,3.25,0,0,1,.81-2.26,2.48,2.48,0,0,1,1.91-.9,2.4,2.4,0,0,1,1.94.78,3.1,3.1,0,0,1,.65,2.06v.72H278l0,0a2.52,2.52,0,0,0,.46,1.5,1.49,1.49,0,0,0,1.25.58,2.93,2.93,0,0,0,1-.16,2.46,2.46,0,0,0,.77-.46l.45.75a2.82,2.82,0,0,1-.9.56A3.6,3.6,0,0,1,279.67,144.62ZM279.5,139a1.23,1.23,0,0,0-1,.49,2.22,2.22,0,0,0-.51,1.22v0h2.93v-.15a1.71,1.71,0,0,0-.37-1.13A1.27,1.27,0,0,0,279.5,139Z"/><path class="cls-15" d="M287.07,142.81a.75.75,0,0,0-.29-.62,2.61,2.61,0,0,0-1.1-.43,4.74,4.74,0,0,1-1.73-.68,1.39,1.39,0,0,1-.59-1.18,1.64,1.64,0,0,1,.66-1.31,3,3,0,0,1,3.47,0,1.67,1.67,0,0,1,.63,1.38l0,0H287a1,1,0,0,0-.35-.75,1.28,1.28,0,0,0-.92-.33,1.32,1.32,0,0,0-.91.27.85.85,0,0,0-.3.65.73.73,0,0,0,.26.59,2.6,2.6,0,0,0,1.07.39,4.53,4.53,0,0,1,1.79.7,1.41,1.41,0,0,1,.59,1.19,1.63,1.63,0,0,1-.69,1.36,2.83,2.83,0,0,1-1.78.52,2.77,2.77,0,0,1-1.91-.61,1.75,1.75,0,0,1-.66-1.44v0h1.1a1,1,0,0,0,.46.89,1.75,1.75,0,0,0,1,.28,1.66,1.66,0,0,0,1-.24A.77.77,0,0,0,287.07,142.81Z"/></g><g class="cls-6"><path class="cls-15" d="M244.74,150.63v1.53h1.2V153h-1.2v3.85a.82.82,0,0,0,.19.62.66.66,0,0,0,.49.18.9.9,0,0,0,.22,0,1.05,1.05,0,0,0,.21-.06l.15.79a1,1,0,0,1-.38.18,2.07,2.07,0,0,1-.5.06,1.51,1.51,0,0,1-1.12-.42,1.87,1.87,0,0,1-.41-1.33V153h-1v-.86h1v-1.53Z"/><path class="cls-15" d="M247.1,155.27a3.49,3.49,0,0,1,.76-2.32,2.82,2.82,0,0,1,4.15,0,3.49,3.49,0,0,1,.76,2.32v.13a3.45,3.45,0,0,1-.76,2.32,2.84,2.84,0,0,1-4.15,0,3.49,3.49,0,0,1-.76-2.32Zm1.15.13a3,3,0,0,0,.43,1.66,1.54,1.54,0,0,0,2.51,0,3,3,0,0,0,.43-1.66v-.13a3,3,0,0,0-.43-1.66,1.42,1.42,0,0,0-1.26-.66,1.39,1.39,0,0,0-1.25.66,3,3,0,0,0-.43,1.66Z"/><path class="cls-15" d="M262,156.35a1.22,1.22,0,0,0-.44-1,3.58,3.58,0,0,0-1.56-.67,5.1,5.1,0,0,1-2.11-1,2,2,0,0,1-.76-1.58,2.07,2.07,0,0,1,.82-1.66,3.22,3.22,0,0,1,2.12-.67,3.16,3.16,0,0,1,2.23.76,2.28,2.28,0,0,1,.8,1.78v0H262a1.58,1.58,0,0,0-.5-1.21,2,2,0,0,0-1.42-.47,2,2,0,0,0-1.32.39,1.26,1.26,0,0,0-.46,1,1.11,1.11,0,0,0,.5.93,4.73,4.73,0,0,0,1.61.65,4.47,4.47,0,0,1,2.05,1,2.1,2.1,0,0,1,.71,1.61,2,2,0,0,1-.85,1.66,3.63,3.63,0,0,1-2.2.62,3.85,3.85,0,0,1-2.26-.69,2.1,2.1,0,0,1-.95-1.86v0H258a1.43,1.43,0,0,0,.61,1.25,2.54,2.54,0,0,0,1.49.42,2.35,2.35,0,0,0,1.38-.36A1.18,1.18,0,0,0,262,156.35Z"/><path class="cls-15" d="M266.09,153.7h1a1.35,1.35,0,0,0,1.08-.38,1.94,1.94,0,0,0,0-2.19,1.42,1.42,0,0,0-1.07-.38,1.54,1.54,0,0,0-1.09.4,1.39,1.39,0,0,0-.4,1h-1.11v0a2.06,2.06,0,0,1,.7-1.65,3.09,3.09,0,0,1,3.79,0,2.27,2.27,0,0,1,.71,1.79,2,2,0,0,1-.32,1,2.06,2.06,0,0,1-1,.8,1.92,1.92,0,0,1,1.09.79,2.37,2.37,0,0,1,.31,1.21A2.32,2.32,0,0,1,269,158a2.88,2.88,0,0,1-1.95.66,2.93,2.93,0,0,1-1.93-.63,2,2,0,0,1-.74-1.7l0,0h1.1a1.44,1.44,0,0,0,.41,1.07,1.61,1.61,0,0,0,1.14.39,1.59,1.59,0,0,0,1.14-.39,1.56,1.56,0,0,0,.42-1.18,1.59,1.59,0,0,0-.37-1.16,1.55,1.55,0,0,0-1.16-.37h-1Z"/></g></g><g id="Graphic_156" data-name="Graphic 156"><rect class="cls-2" x="50.1" y="119.5" width="124" height="56"/><g class="cls-20"><rect class="cls-4" x="50.1" y="119.5" width="124" height="56"/></g><g class="cls-6"><path class="cls-15" d="M92.15,147.3V151H91v-8.53h3.09a3.21,3.21,0,0,1,2.14.63,2.22,2.22,0,0,1,.74,1.8,1.9,1.9,0,0,1-.35,1.14,2.29,2.29,0,0,1-1,.78,1.78,1.78,0,0,1,1,.74,2.46,2.46,0,0,1,.3,1.27v.8a2.6,2.6,0,0,0,.09.71,1.05,1.05,0,0,0,.31.52V151H96.14a1,1,0,0,1-.3-.59,5.06,5.06,0,0,1-.06-.79v-.78a1.58,1.58,0,0,0-.41-1.12,1.43,1.43,0,0,0-1.08-.42Zm0-.91H94a2.15,2.15,0,0,0,1.41-.37,1.39,1.39,0,0,0,.43-1.13,1.44,1.44,0,0,0-.42-1.11,1.81,1.81,0,0,0-1.3-.4H92.15Z"/><path class="cls-15" d="M101.36,151.12a2.66,2.66,0,0,1-2.11-.88,3.33,3.33,0,0,1-.78-2.29v-.25a3.29,3.29,0,0,1,.8-2.26,2.5,2.5,0,0,1,1.91-.9,2.39,2.39,0,0,1,1.94.78,3.05,3.05,0,0,1,.66,2.06v.72H99.66v0a2.46,2.46,0,0,0,.46,1.5,1.48,1.48,0,0,0,1.25.58,3,3,0,0,0,1-.16,2.41,2.41,0,0,0,.76-.46l.45.75a2.72,2.72,0,0,1-.9.56A3.58,3.58,0,0,1,101.36,151.12Zm-.18-5.67a1.23,1.23,0,0,0-1,.49,2.28,2.28,0,0,0-.5,1.22v0h2.92V147a1.76,1.76,0,0,0-.36-1.13A1.28,1.28,0,0,0,101.18,145.45Z"/><path class="cls-15" d="M104.81,148a4.29,4.29,0,0,1,.65-2.47,2.13,2.13,0,0,1,1.83-.94,2.25,2.25,0,0,1,1,.21,1.93,1.93,0,0,1,.74.6v-3.49h1.15V151h-.94l-.14-.78a2,2,0,0,1-.76.67,2.43,2.43,0,0,1-2.87-.61,3.54,3.54,0,0,1-.65-2.21Zm1.15.12a2.72,2.72,0,0,0,.39,1.54,1.4,1.4,0,0,0,1.22.58,1.49,1.49,0,0,0,.87-.24,1.7,1.7,0,0,0,.58-.66v-2.95a1.86,1.86,0,0,0-.58-.63,1.56,1.56,0,0,0-.85-.23,1.31,1.31,0,0,0-1.23.69A3.45,3.45,0,0,0,106,148Z"/><path class="cls-15" d="M115.58,149.31a.78.78,0,0,0-.29-.62,2.67,2.67,0,0,0-1.1-.43,4.8,4.8,0,0,1-1.74-.68,1.38,1.38,0,0,1-.58-1.18,1.66,1.66,0,0,1,.65-1.31,2.57,2.57,0,0,1,1.72-.55,2.61,2.61,0,0,1,1.76.57,1.69,1.69,0,0,1,.62,1.38v0h-1.1a1,1,0,0,0-.35-.75,1.28,1.28,0,0,0-.92-.33,1.35,1.35,0,0,0-.92.27.85.85,0,0,0-.3.65.71.71,0,0,0,.27.59,2.54,2.54,0,0,0,1.07.39,4.53,4.53,0,0,1,1.79.7,1.4,1.4,0,0,1,.58,1.19,1.65,1.65,0,0,1-.68,1.36,2.85,2.85,0,0,1-1.78.52,2.82,2.82,0,0,1-1.92-.61,1.78,1.78,0,0,1-.66-1.44v0h1.11a1.06,1.06,0,0,0,.45.89,1.78,1.78,0,0,0,1,.28,1.66,1.66,0,0,0,1-.24A.79.79,0,0,0,115.58,149.31Z"/><path class="cls-15" d="M119.32,145.51a2.39,2.39,0,0,1,.81-.71,2.22,2.22,0,0,1,1.06-.26,2,2,0,0,1,1.57.61,2.68,2.68,0,0,1,.57,1.88v4h-1.15v-4a1.71,1.71,0,0,0-.34-1.16,1.3,1.3,0,0,0-1-.38,1.71,1.71,0,0,0-.87.23,1.87,1.87,0,0,0-.64.61V151h-1.15v-9.14h1.15Z"/><path class="cls-15" d="M126.24,143h-1.16v-1.18h1.16Zm0,8h-1.16v-6.34h1.16Z"/><path class="cls-15" d="M128.49,151v-5.48h-1v-.86h1v-.8a2.19,2.19,0,0,1,.53-1.57,2,2,0,0,1,1.48-.55,2.69,2.69,0,0,1,.4,0l.45.09-.14.88-.25,0-.32,0a.93.93,0,0,0-.75.3,1.38,1.38,0,0,0-.24.88v.8H131v.86h-1.31V151Z"/><path class="cls-15" d="M133.68,143.13v1.53h1.2v.86h-1.2v3.85a.87.87,0,0,0,.18.62.67.67,0,0,0,.49.18.86.86,0,0,0,.22,0,1.05,1.05,0,0,0,.21-.06l.16.79a1.12,1.12,0,0,1-.38.18,2.14,2.14,0,0,1-.5.06,1.51,1.51,0,0,1-1.12-.42,1.83,1.83,0,0,1-.42-1.33v-3.85h-1v-.86h1v-1.53Z"/></g></g><g id="Graphic_206" data-name="Graphic 206"><rect class="cls-2" x="338" y="119.5" width="124" height="56"/><g class="cls-21"><rect class="cls-4" x="338" y="119.5" width="124" height="56"/></g><g class="cls-6"><path class="cls-15" d="M377.83,136.88h-2.74v7.62h-1.15v-7.62H371.2V136h6.63Z"/><path class="cls-15" d="M381.49,139.18l-.59,0a1.35,1.35,0,0,0-.77.22,1.49,1.49,0,0,0-.49.61v4.53h-1.15v-6.34h1l.11.93a2.12,2.12,0,0,1,.67-.77,1.51,1.51,0,0,1,.91-.28l.25,0,.19.05Z"/><path class="cls-15" d="M386.5,144.5q-.06-.28-.09-.51c0-.14,0-.29,0-.44a2.6,2.6,0,0,1-.84.77,2.21,2.21,0,0,1-1.12.3,2.07,2.07,0,0,1-1.5-.5,1.86,1.86,0,0,1-.52-1.4,1.62,1.62,0,0,1,.73-1.42,3.46,3.46,0,0,1,2-.51h1.25v-.63a1.14,1.14,0,0,0-.34-.88,1.33,1.33,0,0,0-1-.33,1.37,1.37,0,0,0-.9.29.81.81,0,0,0-.35.68h-1.11v0a1.54,1.54,0,0,1,.66-1.26,3,3,0,0,1,3.51,0,1.94,1.94,0,0,1,.66,1.58v3.05q0,.34,0,.66a3.25,3.25,0,0,0,.13.62Zm-1.92-.85a2.07,2.07,0,0,0,1.13-.32,1.49,1.49,0,0,0,.66-.74v-1h-1.29a1.66,1.66,0,0,0-1.12.36,1,1,0,0,0-.42.82.9.9,0,0,0,.26.67A1.14,1.14,0,0,0,384.58,143.65Z"/><path class="cls-15" d="M390.23,138.16l.08.94a2.48,2.48,0,0,1,.8-.78,2.18,2.18,0,0,1,1.09-.28,2.05,2.05,0,0,1,1.58.6,2.62,2.62,0,0,1,.57,1.86v4h-1.16v-4a1.73,1.73,0,0,0-.33-1.19,1.34,1.34,0,0,0-1-.35,1.61,1.61,0,0,0-.88.24,1.69,1.69,0,0,0-.61.66v4.62H389.2v-6.34Z"/><path class="cls-15" d="M399.71,142.81a.78.78,0,0,0-.29-.62,2.67,2.67,0,0,0-1.1-.43,4.8,4.8,0,0,1-1.74-.68,1.38,1.38,0,0,1-.58-1.18,1.66,1.66,0,0,1,.65-1.31,2.57,2.57,0,0,1,1.72-.55,2.61,2.61,0,0,1,1.76.57,1.69,1.69,0,0,1,.62,1.38v0h-1.1a1,1,0,0,0-.35-.75,1.28,1.28,0,0,0-.92-.33,1.35,1.35,0,0,0-.92.27.85.85,0,0,0-.3.65.71.71,0,0,0,.27.59,2.54,2.54,0,0,0,1.07.39,4.59,4.59,0,0,1,1.79.7,1.4,1.4,0,0,1,.58,1.19,1.65,1.65,0,0,1-.68,1.36,2.86,2.86,0,0,1-1.79.52,2.81,2.81,0,0,1-1.91-.61,1.78,1.78,0,0,1-.66-1.44v0h1.11a1.06,1.06,0,0,0,.45.89,1.77,1.77,0,0,0,1,.28,1.7,1.7,0,0,0,1-.24A.79.79,0,0,0,399.71,142.81Z"/><path class="cls-15" d="M402.78,144.5V139h-1v-.86h1v-.8a2.15,2.15,0,0,1,.53-1.57,1.93,1.93,0,0,1,1.48-.55l.4,0,.45.09-.14.88-.26,0-.31,0a.9.9,0,0,0-.75.3,1.32,1.32,0,0,0-.25.88v.8h1.32V139h-1.32v5.48Z"/><path class="cls-15" d="M408.93,144.62a2.68,2.68,0,0,1-2.11-.88,3.33,3.33,0,0,1-.78-2.29v-.25a3.25,3.25,0,0,1,.81-2.26,2.46,2.46,0,0,1,1.9-.9,2.38,2.38,0,0,1,1.94.78,3.05,3.05,0,0,1,.66,2.06v.72h-4.11l0,0a2.46,2.46,0,0,0,.46,1.5,1.48,1.48,0,0,0,1.25.58,3,3,0,0,0,1-.16,2.41,2.41,0,0,0,.76-.46l.45.75a2.66,2.66,0,0,1-.89.56A3.6,3.6,0,0,1,408.93,144.62Zm-.18-5.67a1.26,1.26,0,0,0-1,.49,2.28,2.28,0,0,0-.5,1.22v0h2.93v-.15a1.76,1.76,0,0,0-.37-1.13A1.28,1.28,0,0,0,408.75,139Z"/><path class="cls-15" d="M415.64,139.18l-.59,0a1.37,1.37,0,0,0-.77.22,1.4,1.4,0,0,0-.48.61v4.53h-1.16v-6.34h1l.11.93a2.19,2.19,0,0,1,.66-.77,1.53,1.53,0,0,1,.91-.28l.25,0,.19.05Z"/><path class="cls-15" d="M421.26,136.63v1.53h1.2V139h-1.2v3.85a.87.87,0,0,0,.19.62.66.66,0,0,0,.49.18.9.9,0,0,0,.22,0,1.05,1.05,0,0,0,.21-.06l.15.79a1.06,1.06,0,0,1-.37.18,2.22,2.22,0,0,1-.51.06,1.49,1.49,0,0,1-1.11-.42,1.83,1.83,0,0,1-.42-1.33V139h-1v-.86h1v-1.53Z"/><path class="cls-15" d="M423.62,141.27a3.49,3.49,0,0,1,.76-2.32,2.82,2.82,0,0,1,4.15,0,3.49,3.49,0,0,1,.77,2.32v.13a3.5,3.5,0,0,1-.76,2.32,2.85,2.85,0,0,1-4.16,0,3.49,3.49,0,0,1-.76-2.32Zm1.15.13a3,3,0,0,0,.43,1.66,1.54,1.54,0,0,0,2.51,0,3,3,0,0,0,.43-1.66v-.13a3,3,0,0,0-.43-1.66,1.42,1.42,0,0,0-1.26-.66,1.39,1.39,0,0,0-1.25.66,3.05,3.05,0,0,0-.43,1.66Z"/></g><g class="cls-6"><path class="cls-15" d="M377,158.5V150h2.79a3.35,3.35,0,0,1,2.09.58,2,2,0,0,1,.75,1.73,1.54,1.54,0,0,1-.36,1,2.19,2.19,0,0,1-1,.67,2,2,0,0,1,1.21.75,2.23,2.23,0,0,1,.44,1.38,2.19,2.19,0,0,1-.75,1.79,3.2,3.2,0,0,1-2.06.62Zm1.16-4.9H380a1.52,1.52,0,0,0,1.05-.36,1.43,1.43,0,0,0,0-2,2,2,0,0,0-1.25-.34h-1.63Zm0,.9v3.09h2a1.77,1.77,0,0,0,1.22-.39,1.38,1.38,0,0,0,.44-1.1,1.71,1.71,0,0,0-.37-1.17,1.41,1.41,0,0,0-1.12-.43Z"/><path class="cls-15" d="M385.67,150.54h-1.16v-1.18h1.16Zm0,8h-1.16v-6.34h1.16Z"/><path class="cls-15" d="M387.19,155.45a4.15,4.15,0,0,1,.67-2.47,2.3,2.3,0,0,1,2.9-.69,2,2,0,0,1,.76.7l.15-.83h.91v6.38a2.43,2.43,0,0,1-.7,1.87,3,3,0,0,1-2.05.65,4.09,4.09,0,0,1-1-.13,3.52,3.52,0,0,1-.93-.34l.29-.89a3.27,3.27,0,0,0,.75.28,3.77,3.77,0,0,0,.87.11,1.68,1.68,0,0,0,1.23-.39,1.59,1.59,0,0,0,.38-1.16v-.72a1.93,1.93,0,0,1-.74.6,2.26,2.26,0,0,1-1,.2,2.2,2.2,0,0,1-1.83-.84,3.43,3.43,0,0,1-.67-2.21Zm1.15.12a2.65,2.65,0,0,0,.41,1.54,1.41,1.41,0,0,0,1.23.58,1.49,1.49,0,0,0,.87-.24,1.82,1.82,0,0,0,.58-.67v-2.92a1.79,1.79,0,0,0-.58-.64A1.5,1.5,0,0,0,390,153a1.36,1.36,0,0,0-1.24.69,3.47,3.47,0,0,0-.41,1.78Z"/><path class="cls-15" d="M400.93,155a4,4,0,0,1-.29,1.54,3.37,3.37,0,0,1-.82,1.2l1.45,1.36-.79.76-1.62-1.51a4.11,4.11,0,0,1-.68.21,4.4,4.4,0,0,1-.73.06,3.11,3.11,0,0,1-2.43-1,3.73,3.73,0,0,1-.94-2.59v-1.52a3.76,3.76,0,0,1,.94-2.6,3.11,3.11,0,0,1,2.43-1,3.27,3.27,0,0,1,2.51,1,3.64,3.64,0,0,1,1,2.6Zm-1.15-1.53a2.91,2.91,0,0,0-.63-1.93,2.11,2.11,0,0,0-1.7-.75,2,2,0,0,0-1.61.75,3,3,0,0,0-.6,1.93V155a3,3,0,0,0,.6,1.93,2,2,0,0,0,1.61.75,2.11,2.11,0,0,0,1.7-.75,2.89,2.89,0,0,0,.63-1.93Z"/><path class="cls-15" d="M406.47,157.56a2.24,2.24,0,0,1-.77.79,2.15,2.15,0,0,1-1.09.27A2,2,0,0,1,403,158a3.05,3.05,0,0,1-.58-2.06v-3.74h1.15v3.75a2.32,2.32,0,0,0,.3,1.39,1.1,1.1,0,0,0,.93.39,2,2,0,0,0,1-.25,1.5,1.5,0,0,0,.6-.71v-4.57h1.16v6.34h-1Z"/><path class="cls-15" d="M411.89,158.62a2.65,2.65,0,0,1-2.1-.88,3.29,3.29,0,0,1-.79-2.29v-.25a3.25,3.25,0,0,1,.81-2.26,2.48,2.48,0,0,1,1.91-.9,2.4,2.4,0,0,1,1.94.78,3.1,3.1,0,0,1,.65,2.06v.72H410.2l0,0a2.52,2.52,0,0,0,.46,1.5,1.49,1.49,0,0,0,1.25.58,3,3,0,0,0,1-.16,2.41,2.41,0,0,0,.76-.46l.46.75a2.82,2.82,0,0,1-.9.56A3.6,3.6,0,0,1,411.89,158.62Zm-.17-5.67a1.23,1.23,0,0,0-1,.49,2.22,2.22,0,0,0-.51,1.22v0h2.93v-.15a1.71,1.71,0,0,0-.37-1.13A1.27,1.27,0,0,0,411.72,153Z"/><path class="cls-15" d="M418.61,153.18l-.6,0a1.37,1.37,0,0,0-.77.22,1.47,1.47,0,0,0-.48.61v4.53h-1.15v-6.34h1l.11.93a2.19,2.19,0,0,1,.66-.77,1.54,1.54,0,0,1,.92-.28l.24,0,.19.05Z"/><path class="cls-15" d="M421.76,156.15l.21.8h0l1.56-4.79h1.29l-2.67,7.31a3.29,3.29,0,0,1-.69,1.12,1.6,1.6,0,0,1-1.21.47l-.36,0-.33-.06.12-.91h.21l.3,0a.72.72,0,0,0,.61-.33,3.89,3.89,0,0,0,.39-.73l.28-.66-2.36-6.21h1.29Z"/></g></g><g id="Graphic_211" data-name="Graphic 211"><circle class="cls-5" cx="317.6" cy="120.2" r="10"/><g class="cls-6"><path d="M318.61,123.69h-1.15v-7.41l-1.75,0v-.84l2.9-.31Z"/></g></g><g id="Graphic_212" data-name="Graphic 212"><circle class="cls-5" cx="461.1" cy="120.2" r="10"/><g class="cls-6"><path d="M464.35,123.69h-5.54v-.8l2.8-3.1a8,8,0,0,0,1-1.33,2.17,2.17,0,0,0,.26-1,1.58,1.58,0,0,0-.37-1.07,1.25,1.25,0,0,0-1-.44,1.66,1.66,0,0,0-1.3.46,1.79,1.79,0,0,0-.42,1.27H458.7v0a2.43,2.43,0,0,1,.73-1.86,2.88,2.88,0,0,1,2.11-.75,2.48,2.48,0,0,1,1.83.68,2.25,2.25,0,0,1,.69,1.7,2.7,2.7,0,0,1-.42,1.4,8.61,8.61,0,0,1-1.15,1.5l-2.25,2.44v0h4.11Z"/></g></g></g></g></g></svg>